<?xml version="1.0" encoding="UTF-8" standalone="no"?>
<svg
   xmlns:dc="http://purl.org/dc/elements/1.1/"
   xmlns:cc="http://creativecommons.org/ns#"
   xmlns:rdf="http://www.w3.org/1999/02/22-rdf-syntax-ns#"
   xmlns:svg="http://www.w3.org/2000/svg"
   xmlns="http://www.w3.org/2000/svg"
   xmlns:sodipodi="http://sodipodi.sourceforge.net/DTD/sodipodi-0.dtd"
   xmlns:inkscape="http://www.inkscape.org/namespaces/inkscape"
   width="400"
   height="400"
   version="1.1"
   id="svg288"
   sodipodi:docname="csic.svg"
   inkscape:version="0.92.4 (5da689c313, 2019-01-14)">
  <metadata
     id="metadata294">
    <rdf:RDF>
      <cc:Work
         rdf:about="">
        <dc:format>image/svg+xml</dc:format>
        <dc:type
           rdf:resource="http://purl.org/dc/dcmitype/StillImage" />
        <dc:title></dc:title>
      </cc:Work>
    </rdf:RDF>
  </metadata>
  <defs
     id="defs292" />
  <sodipodi:namedview
     pagecolor="#ffffff"
     bordercolor="#666666"
     borderopacity="1"
     objecttolerance="10"
     gridtolerance="10"
     guidetolerance="10"
     inkscape:pageopacity="0"
     inkscape:pageshadow="2"
     inkscape:window-width="1920"
     inkscape:window-height="1017"
     id="namedview290"
     showgrid="false"
     inkscape:zoom="1.046252"
     inkscape:cx="-3.8836318"
     inkscape:cy="286.30565"
     inkscape:window-x="-8"
     inkscape:window-y="-8"
     inkscape:window-maximized="1"
     inkscape:current-layer="svg288" />
  <path
     style="fill:#aa111f;stroke:none;stroke-width:0.63015515;fill-opacity:1"
     d="m 285.90091,20.094586 -1.2603,-3.780931 c -5.14774,0.171213 -4.14075,3.982708 -6.8145,7.316352 -1.9768,2.464605 -4.85283,3.793342 -6.66263,6.556259 -2.64981,4.045027 -1.36933,8.748954 -1.01644,13.224058 h -2.52062 c -0.213,-4.585577 -2.99829,-6.622301 -5.36325,-10.252686 -0.72972,-1.120291 -2.01965,-3.402835 -3.67191,-2.295969 -1.26221,0.845857 -1.64976,3.00565 -2.03856,4.356641 -1.09899,3.821578 -1.52875,7.380506 -1.52939,11.342793 -3.96241,4.41e-4 -8.70937,-0.114 -12.42099,1.467947 -2.85145,1.215442 -4.81564,3.697998 -7.74398,4.833602 0.10461,-8.937049 9.01185,-14.97564 6.20263,-24.566851 -0.57092,-1.947678 -1.48591,-6.05573 -3.89815,-6.526137 -2.73235,-0.532858 -4.20565,2.928397 -6.74013,3.141006 -3.32596,0.279038 -7.09996,-9.917186 -9.67792,-3.518785 -3.03168,7.525565 4.90008,13.447508 7.24552,19.498325 1.73041,4.463514 0.56651,11.008562 0.56651,15.753373 -4.44007,0.708296 -3.35936,4.029211 -4.10735,7.561862 -1.23448,5.830824 -2.6977,11.433533 -5.21832,16.840895 -1.97932,4.244722 -6.37528,9.65272 -10.94642,11.170134 -3.78031,1.254633 -9.10133,1.095205 -13.12613,1.606267 -0.44679,-2.507396 -1.44999,-4.709784 -2.80357,-6.875001 -1.08513,-1.7367 -2.82561,-3.499246 -2.39396,-5.730628 0.23127,-1.192252 0.99817,-2.207434 1.71906,-3.148256 1.12987,-1.473928 2.58049,-3.499882 4.28821,-4.337359 1.32963,-0.651578 2.82624,-0.173921 4.23149,-0.18589 2.33977,-0.0202 5.20887,-0.529965 7.38227,-1.413444 5.20256,-2.11417 6.8668,-7.498845 10.06295,-11.597997 1.20863,-1.550819 3.45703,-2.670599 4.07395,-4.617782 0.96792,-3.054676 -3.38897,-3.492322 -4.4218,-5.693449 -0.95657,-2.038241 0.52618,-5.778966 0.54697,-8.072915 -3.00268,3.09e-4 -5.36576,0.250988 -8.19201,1.260304 -0.5224,-2.482308 -0.9654,-4.256004 -3.15078,-5.671396 -1.94906,2.716537 -5.25864,5.004064 -6.30155,8.192023 -7.55745,0.758698 -12.45249,6.932398 -11.17895,14.493563 0.443,2.629643 2.66051,5.402952 2.12236,8.132782 -0.6396,3.243407 -6.22593,6.655071 -9.2179,6.990942 -0.32705,-3.259796 -2.15766,-5.716771 -2.88927,-8.822175 -1.02274,-4.343022 -0.74547,-11.585402 0.93138,-15.741713 1.06433,-2.638834 3.75634,-3.227273 5.59703,-5.14383 2.10346,-2.189413 3.48413,-6.415232 3.84143,-9.418297 0.60495,-5.081009 -1.72411,-12.739785 -7.48057,-13.176858 l -2.52063,5.671397 c -4.46087,-2.080335 -6.79055,-6.151454 -11.97294,-6.93171 0,7.27514 -3.15015,13.486893 -3.15078,20.79512 3.00962,1.37771 3.9391,3.662458 7.56186,3.780931 v 8.822176 c -1.48527,-1.366367 -2.42421,-2.593152 -4.41108,-3.150779 -0.61566,-3.721135 -4.83015,-5.162169 -8.20147,-5.863912 -3.95485,-0.823425 -7.89206,-1.521189 -11.9635,-0.935591 -3.026,0.435247 -5.77474,1.938424 -8.82217,2.38842 1.47519,-3.01889 4.51506,-4.678593 6.29021,-7.564262 2.72794,-4.434846 0.76941,-9.760342 -2.04863,-13.593581 -0.88159,-1.198929 -2.04675,-3.836255 -3.68011,-4.098464 -1.95285,-0.313501 -3.05752,2.649358 -4.99084,2.93249 -1.83753,0.269203 -3.81495,-1.336684 -5.65312,-1.622083 0.80345,3.968339 3.98133,6.565839 5.40233,10.191876 1.12168,2.862478 0.27727,6.342892 0.26907,9.342931 -8.07997,-0.899981 -4.66945,-7.45026 -7.41598,-12.600707 -1.11027,-2.082036 -2.88945,-4.005077 -5.18958,-4.720306 -1.57243,-0.488931 -3.37246,-0.154136 -4.68627,-1.33126 -2.35294,-2.108252 -2.05904,-5.472336 -5.39376,-6.55393 -2.07604,5.243647 -6.49236,4.411083 -11.34279,4.411083 0.16945,2.147126 1.03831,4.76322 0.25673,6.850038 -0.926209,2.472861 -3.633102,3.780622 -4.667817,6.38322 6.978717,1.019214 6.090507,8.532429 11.610737,11.607269 3.9633,2.207689 8.43671,2.919637 12.94049,2.04221 3.16974,-0.617494 5.44687,-1.934014 8.84701,-1.639539 4.88369,0.422836 9.14732,6.036386 9.45232,10.675646 -4.67008,1.05866 -8.30356,4.268045 -13.23326,4.411092 -2.25369,-8.250628 -13.9115,-11.015301 -21.42528,-11.342792 0,3.079568 0.91934,7.917897 -1.01039,10.522957 -1.57243,2.122992 -7.287997,3.712869 -6.579198,6.967628 1.124384,5.164119 9.229128,4.663774 10.110218,10.236236 5.83201,-6.35e-4 11.01523,-1.349166 15.77719,-4.873622 3.33402,-2.467057 4.2814,-5.650597 8.79886,-6.469171 v 3.150779 c 4.33484,-0.143683 6.50131,-3.607011 10.08248,-5.671397 1.21305,2.777719 2.26919,5.117483 2.52062,8.192014 5.47857,0 10.36983,1.195401 15.75388,1.890466 -0.0706,2.436176 -0.77509,4.569885 -1.26031,6.93171 -7.17053,0.0053 -15.14263,3.676951 -21.42465,7.143436 -2.30636,1.27291 -4.47032,3.521934 -6.95691,4.361934 -2.1569,0.72846 -4.15776,-0.366753 -6.27697,-0.661034 -3.91579,-0.543823 -9.37672,-0.739169 -13.23276,0.158166 -2.80123,0.651587 -5.81154,2.292511 -6.20186,5.406101 -0.22333,1.781449 0.64067,3.755729 -0.1644,5.442019 -0.541,1.13302 -1.68265,1.89614 -2.383,2.92771 -1.981721,2.91888 -3.269379,6.42758 -3.854351,9.8802 3.969481,0 9.437401,-1.23448 13.207991,-0.3321 2.2835,0.54635 3.34247,3.19931 5.75552,3.30832 7.43035,0.33587 15.72779,-5.75584 18.30828,-12.42855 0.86205,-2.23075 0.0737,-4.70537 0.91751,-6.90713 0.94523,-2.463903 3.2768,-3.693343 4.0311,-6.326127 1.37059,-0.161951 3.53265,-1.039757 4.84085,-0.449299 1.13176,0.511054 1.36177,1.86463 1.2893,2.973066 -0.22433,3.4501 -1.71655,6.4591 -1.71906,10.07934 3.72106,-0.19031 8.23172,-2.96678 11.89165,-1.51238 2.3946,0.95154 3.43372,3.89562 5.01919,5.72748 2.9529,3.41293 7.5877,5.05826 12.01958,4.52577 2.50487,-0.30058 8.46866,-1.33151 10.02577,-3.43812 2.90501,-3.92965 -3.26421,-10.74099 -6.81828,-11.60431 -1.65164,2.63594 -3.41229,5.01604 -6.30156,6.30156 0,-5.60082 1.10215,-10.903578 1.26032,-16.384038 6.40174,0.43859 10.666,5.622247 14.04867,10.420248 2.1085,2.99134 3.98259,5.33867 4.22583,9.11456 h 1.89047 l 0.63015,9.45233 c -7.11886,2.094 -8.19139,11.414 -8.19202,17.64434 h -2.52062 c -1.27796,-4.26363 -4.84274,-9.14292 -9.45233,-9.45233 0,2.59183 -0.0277,5.03054 -0.63015,7.56186 -5.85225,-3.20244 -2.96362,-10.33328 -8.22605,-14.03733 -4.0834,-2.87476 -9.2929,-2.38009 -13.72226,-0.6289 -1.61446,0.63835 -2.79222,2.01399 -4.52766,2.41098 -2.44185,0.55832 -5.08976,-0.82173 -7.55241,-0.97801 0.52555,1.46197 1.43738,2.5055 2.08455,3.8887 1.5672,3.35305 -2.28116,5.47794 -5.12568,4.12499 -2.39585,-1.14058 -7.94058,-10.39756 -9.46865,-3.69145 -0.13302,0.58416 -0.0751,1.41848 -0.0933,1.97932 -2.25507,0 -5.37289,-0.4619 -7.36153,0.83055 -2.59385,1.68566 -1.35522,5.25171 1.05998,6.10115 -0.23826,3.0947 -1.60198,4.4678 -4.41108,5.6714 v 2.52063 c 2.28166,0.81479 5.48537,0.88662 7.4301,2.26163 4.42885,3.1306 5.49155,8.21785 11.47456,9.46555 5.25359,1.09521 11.82801,-5.87619 15.12372,0.24576 -4.61211,1.8325 -5.20949,5.85604 -6.93171,10.08248 -7.0716,-3.63221 -1.58106,6.85168 -5.81507,8.40816 -1.73986,0.63898 -3.78472,-0.58856 -5.52772,-0.76248 -2.73217,-0.27349 -6.21932,0.46694 -8.71228,1.61004 -3.66001,1.67684 -1.85215,3.56606 -2.75208,6.3652 -0.47696,1.48402 -1.93067,2.65863 -2.6825,4.02354 -2.16749,3.9328 -2.86683,7.44024 -2.86733,11.8633 4.05278,0 7.94745,-0.31256 11.97294,-0.63015 0.0143,1.20927 -0.2174,3.00899 0.64768,4.00652 0.9446,1.08891 2.58275,0.52681 3.75459,0.22938 3.37448,-0.85576 6.96384,-2.83066 9.19711,-5.55482 4.63227,-5.65123 1.42856,-13.10911 3.41481,-19.4762 1.43487,1.02841 2.82247,2.73361 4.52074,3.29445 2.59812,0.85953 5.47479,-1.29938 7.62929,-2.50046 1.16579,-0.64969 3.13187,-1.2288 3.22828,-2.81868 0.16258,-2.66808 -3.45766,-4.36446 -2.65674,-7.21339 1.18028,-4.20313 6.6242,-3.27239 8.90473,-0.94775 5.80751,5.91652 2.45382,13.15512 -3.35179,17.34187 -4.22267,3.04428 -9.42523,3.63536 -13.70021,6.44901 -5.83271,3.83827 -7.85741,11.42597 -5.7508,17.90019 2.55529,7.85173 16.68021,8.19894 21.43095,2.22444 2.69958,-3.39464 0.50161,-8.23423 -0.71963,-11.67426 -4.88056,1.16768 -8.1164,5.50315 -13.23326,6.30156 1.36806,-3.49296 3.8471,-4.46591 6.82458,-6.432 4.28064,-2.82624 9.67729,-5.33489 13.46137,-8.7163 2.79915,-2.50172 5.90077,-6.40742 6.89957,-10.08249 1.39768,-5.1408 -0.0744,-10.53115 -0.0889,-15.7293 7.74965,1.59619 16.65122,8.41762 14.29633,17.57882 -1.20548,4.68772 -6.08352,7.12138 -5.34183,12.66926 0.52681,3.93973 3.27807,5.95749 4.40227,9.46115 0.87654,2.73172 0.24575,5.42374 -0.0164,8.18256 -0.49593,5.21139 -0.0447,12.0826 -4.20251,16.1723 -1.91819,1.88669 -4.50498,0.45056 -6.61726,-0.322 -3.98384,-1.45755 -11.18463,-5.47164 -15.19367,-2.86406 -5.28385,3.43687 -3.71098,14.29885 -3.71098,19.78184 -5.31347,0.42346 -10.47318,2.28494 -15.75388,3.01906 -6.75148,0.93831 -13.53259,-0.23567 -20.16497,-1.1286 1.726,-3.21379 5.26281,-4.98201 7.18819,-8.12144 3.02789,-4.9379 2.96235,-13.60505 0.71648,-18.79564 -3.29949,-7.62425 -13.1015,-6.75967 -19.87761,-5.94867 -2.00674,0.2401 -6.17193,-0.008 -7.54435,1.73797 -1.99129,2.53323 -0.64767,9.72771 -0.64767,12.85328 5.17508,0 10.69619,-0.57407 15.75388,0.63015 -2.47027,1.61887 -4.36899,3.0676 -5.88288,5.67455 -3.95246,6.80505 -3.91465,21.58723 3.47216,26.32158 3.21864,2.06313 6.99541,2.64728 10.60273,3.63158 9.70692,2.64855 19.37097,1.90748 28.98715,-0.94712 5.19121,-1.54136 13.25404,-2.75881 15.76143,-8.2147 0.80786,-1.7575 0.62133,-3.7866 0.62259,-5.67077 9.36979,0.5955 18.39675,4.43819 27.72683,5.55545 12.39074,1.48339 26.24849,-0.68561 37.80931,-4.92529 0.74232,2.83759 1.32144,6.26752 3.55218,8.38233 2.54647,2.41348 7.04325,3.61457 10.31123,4.66566 9.83169,3.16275 22.02834,4.54909 32.1354,1.38004 3.61835,-1.13491 8.85053,-1.61005 11.46882,-4.59131 1.49662,-1.70457 1.7386,-3.94855 2.30763,-6.05579 1.37122,-5.0778 3.6278,-11.34531 0.75871,-16.38403 -2.06755,-3.63095 -6.2921,-5.0904 -6.97078,-9.45233 3.42931,0 9.2929,1.14058 12.40334,-0.37999 2.58805,-1.26535 3.29635,-11.07182 1.08009,-12.83563 -1.13932,-0.90616 -3.12179,-0.70766 -4.48166,-1.0952 -5.44266,-1.55208 -12.04101,-1.4355 -17.19378,0.89797 -1.97302,0.89356 -4.10169,1.43927 -5.28512,3.3959 -3.12494,5.16854 -1.0889,11.41715 -0.38628,16.94866 1.90117,1.12041 2.78906,2.90942 4.26236,4.53459 2.07574,2.28935 4.54216,3.92775 5.82012,6.8082 -3.59819,0.15438 -7.1176,1.07819 -10.71264,1.23573 -4.84211,0.21174 -9.12969,-0.49908 -13.86341,-1.12168 -3.37322,-0.44426 -8.1958,-0.4285 -10.61938,-3.25979 -1.67306,-1.95474 -1.2225,-4.57177 -1.46132,-6.93675 -0.40708,-4.03992 -1.53191,-9.3849 -5.20382,-11.69945 -4.26364,-2.68888 -11.67804,1.99758 -15.54027,3.88049 -1.70835,0.83307 -4.73372,2.15576 -6.57062,1.16327 -1.67873,-0.90806 -2.22886,-3.00333 -2.72542,-4.68961 -0.84378,-2.86596 -1.39265,-7.07728 -0.37494,-9.97284 1.02022,-2.90313 2.73739,-4.35249 2.79284,-7.66899 0.029,-1.71781 0.23694,-3.75698 -0.53437,-5.3475 -1.97932,-4.07962 -6.68595,-5.8888 -7.89836,-10.4089 -0.88915,-3.31398 -0.90995,-8.52852 -0.0989,-11.8633 0.7732,-3.17977 2.19546,-5.55545 2.23327,-8.9293 1.97491,-0.30562 3.68578,-1.63336 5.68085,-1.69071 4.49301,-0.12918 8.4863,2.1419 13.22381,1.57476 4.39029,-0.52618 9.64389,-1.55459 13.86278,-2.87476 2.61956,-0.81984 4.81502,-2.32276 7.56249,-2.68068 -1.59996,2.74495 -7.19952,5.08723 -10.13856,6.50383 -1.15886,0.55831 -2.9151,0.87339 -3.67255,2.01649 -1.30253,1.96483 1.55586,4.5491 2.98442,5.52079 2.00263,1.36176 4.06891,1.79909 5.78545,3.60323 -5.12632,1.50355 -7.93618,7.60219 -8.19202,12.6031 6.11818,-1.03598 10.62189,-2.81364 13.97495,3.76518 0.54698,1.07441 0.85764,2.00704 1.14878,3.16652 1.68944,0.76943 2.38135,1.46133 3.15078,3.15078 7.84353,-1.21494 12.30125,-12.92258 10.42276,-19.98285 -0.67742,-2.54645 -2.63342,-4.38777 -3.81811,-6.66578 -0.97611,-1.87786 -1.17587,-4.06513 -1.56342,-6.11943 4.59257,2.50675 4.97319,9.50085 9.81719,12.40271 2.07952,1.24581 4.87236,0.83055 7.197,0.83055 -0.61125,-7.72949 -6.10557,-17.78929 -14.49356,-18.90466 0,-3.13061 0.90615,-7.95571 -1.01015,-10.63072 -3.52823,-4.92466 -9.74156,-3.20937 -14.74374,-3.9977 -4.20628,-0.6623 -10.14423,-4.93727 -11.97294,-8.68732 3.45136,-1.07693 7.10122,-1.85329 10.712,-0.90868 5.35633,1.40083 15.5932,9.71762 17.27067,0.27223 0.22433,-1.26284 0.31949,-2.49605 0.37431,-3.77464 -1.72978,-0.61818 -3.19614,-1.13743 -5.04124,-1.26031 0.58037,-3.68074 5.55167,-8.12585 9.25194,-5.10804 1.72851,1.40966 1.34538,3.84647 2.14504,5.7382 1.07505,2.54583 3.16906,4.46528 4.3569,6.9317 3.91326,0.80346 7.3161,1.26031 11.34279,1.26031 0.67804,2.1085 5.68589,8.22731 8.17438,5.27945 1.05866,-1.25338 0.64653,-3.76329 0.64779,-5.27945 1.04984,0 2.10787,0.0309 3.15708,-0.012 0.57029,-0.0227 1.21179,0 1.76507,-0.16383 5.62665,-1.66614 -0.1336,-6.31732 -0.1336,-9.27652 0,-2.35489 2.43555,-4.45205 2.77331,-6.93171 -1.78586,-0.005 -3.90129,0.22055 -5.49873,-0.74043 -4.04307,-2.4324 -4.62471,-7.12706 -9.80521,-8.42454 -4.92215,-1.23259 -9.28597,0.32074 -13.66114,2.36181 -1.25463,0.58605 -2.5036,1.77137 -3.89751,1.97807 -2.51179,0.37179 -2.91447,-2.14127 -3.05625,-3.99708 -3.16842,0.65032 -6.22152,1.48212 -9.45233,1.89047 2.54961,-8.66212 13.71407,-4.24347 19.98538,-5.9682 4.80367,-1.32081 9.13347,-4.32287 14.043,-5.3746 -0.94082,-2.62459 -2.40845,-3.62213 -5.04124,-4.41108 0.91624,-3.46334 1.26031,-6.49628 1.26031,-10.082489 l -10.71263,0.630161 c -0.0712,-3.029157 -1.10593,-5.811921 -1.26032,-8.822175 -2.80734,0.471986 -3.38771,2.22571 -5.32985,4.053786 -2.8483,2.680055 -6.68721,3.819372 -8.15547,7.919797 -1.81232,5.05951 1.4878,10.96217 -6.04948,11.97232 v 1.89046 c -3.21254,-0.97485 -3.14007,-3.28752 -3.15078,-6.30156 h -4.41109 c 0,4.06199 0.73602,10.42529 -4.43818,11.77319 -2.98441,0.77761 -6.29903,-0.45938 -9.24563,0.54572 -2.25029,0.76816 -3.75132,2.88611 -5.95812,3.69649 -2.1482,0.78958 -4.59951,0.14556 -6.82458,0.50979 -2.78025,0.45435 -5.38846,1.82745 -8.19203,2.37947 v -6.93171 c -5.33615,-0.85071 -3.44379,-6.17299 -2.6687,-10.08248 1.50922,-7.6129 7.22473,-15.112381 15.27181,-16.384029 -2.04486,4.603907 -6.04507,11.216129 -3.87041,16.372059 2.84767,6.75148 13.89303,5.10174 18.19069,1.0114 2.8464,-2.70904 3.31335,-6.76472 3.32406,-10.45176 3.42112,0.49782 6.64121,2.36371 10.08249,3.15078 0,-3.29697 1.35735,-10.441037 -1.46071,-12.765682 -2.01397,-1.661089 -6.11376,-1.410921 -8.62178,-1.727889 -0.003,-3.380782 -2.1148,-8.193275 -0.87969,-11.305613 1.27669,-3.218205 7.32871,-3.731146 10.33202,-3.818111 v 5.671397 c 2.03036,0 4.18927,0.19913 6.19443,-0.163212 1.51237,-0.273482 2.88358,-1.129862 4.47095,-0.887254 2.51432,0.38376 3.78597,3.395901 6.40553,3.312095 1.76632,-0.05672 3.34675,-1.248335 4.98452,-1.780823 1.15193,-0.374312 2.50109,-0.330199 3.59252,-0.858268 1.30127,-0.628891 1.85517,-2.101566 2.86972,-3.063188 3.67192,-3.47782 8.06851,-6.225927 8.66149,-11.683065 -3.26988,0 -8.4529,0.846924 -9.7025,-3.210011 -0.67994,-2.208695 0.23127,-5.189329 0.25017,-7.50263 -3.98258,0.01385 -6.98905,1.405248 -10.60551,2.98126 -1.69197,0.737916 -3.78219,2.167104 -5.60082,0.939561 -3.93658,-2.656733 1.6592,-7.762942 4.24283,-8.905665 4.83392,-2.138499 10.741,0.477596 15.71986,-1.095461 2.8023,-0.885559 5.48172,-3.646457 6.13518,-6.523304 0.50539,-2.225896 -0.11595,-4.502141 0.90491,-6.638496 1.60626,-3.359921 4.26237,-5.220961 4.95743,-9.114878 -1.52119,-0.0053 -3.50618,0.246199 -4.84086,-0.64767 -2.21496,-1.482987 -2.08011,-7.527311 -3.35113,-10.064944 -3.16464,1.503998 -5.27755,4.323369 -8.82218,5.041244 z"
     id="path4"
     inkscape:connector-curvature="0" />
  <path
     style="fill:#fcfbfb;stroke:none;stroke-width:0.63015515"
     d="m 142.8557,51.602348 c 1.01328,0.913592 1.30064,1.292694 1.89046,2.520617 5.01036,-0.01438 9.43279,-1.889901 14.49357,-1.890465 1.38886,5.339935 5.5586,8.457945 5.5586,14.493563 0,13.693274 -11.91686,26.406023 -3.33416,39.488677 1.94971,2.97181 3.41229,5.64997 7.22789,6.3463 2.95039,0.53815 7.03064,0.34721 9.53866,-1.46764 3.16968,-2.29377 1.05551,-6.23917 -1.9768,-7.18818 -0.72152,1.08953 -1.42793,2.14883 -2.28999,3.1388 -0.4808,0.55139 -0.98871,1.19604 -1.59618,1.61698 -5.35505,3.71161 -5.11433,-6.21207 -4.8774,-9.166863 0.25837,-3.213795 1.50418,-6.303445 2.13811,-9.452327 0.58668,-2.912581 0.0611,-5.871162 0.4052,-8.797601 0.27726,-2.363077 1.32963,-4.565474 1.62895,-6.956911 0.75619,-6.049493 -0.33083,-11.554528 -2.98001,-17.012928 -3.31146,-6.821555 -10.39818,-9.618247 -17.63489,-9.443753 -3.38834,0.08177 -7.3621,-0.0314 -8.19201,3.771731 m 95.15342,60.494892 c 6.55425,-0.54068 6.80694,-4.02481 8.55499,-9.45233 3.34361,-10.38307 -0.59486,-22.056063 -3.15959,-32.137916 -0.82362,-3.238361 -3.36629,-8.041407 -2.37947,-11.345307 1.40209,-4.692142 4.92403,-6.632825 9.58466,-6.262543 3.32281,0.263902 7.06592,3.598242 8.64888,-1.305556 0.18022,-0.558006 0.13737,-1.336498 0.17581,-1.881706 -4.43945,-0.288177 -8.66338,-2.234725 -13.23326,-0.939376 -1.98057,0.561279 -3.9473,1.844589 -5.6714,2.945597 -14.96555,9.555858 -3.2579,27.733949 -1.36743,40.844324 0.51105,3.544621 0.98682,7.134616 0.55769,10.712643 -0.36109,3.00521 -1.51238,5.83082 -1.71088,8.82217 m 9.1801,-57.431078 c -2.13181,1.143101 -2.94597,4.808082 -2.83002,7.006687 0.0826,1.560266 0.93388,3.459552 2.85334,2.748107 1.87975,-0.696944 5.53402,-5.089759 5.65123,-7.090503 0.15754,-2.680045 -3.68641,-3.730326 -5.67455,-2.664291 m -94.25104,0.717117 1.26031,3.78093 6.93171,0.630153 v -2.520618 c -3.02538,-1.300642 -4.77217,-2.863431 -8.19202,-1.890465 m 115.31839,21.425272 c 0.21992,-2.760712 1.01077,-5.432572 1.2036,-8.192023 0.11657,-1.659827 0.10775,-3.369438 0.0447,-5.031788 -0.2048,-5.423108 -4.32538,-7.70805 -7.5858,-2.707143 -2.2295,3.419223 -0.11659,6.598987 0.0239,10.259558 0.0599,1.542615 -0.36738,3.922082 1.02212,5.023593 1.31072,1.039122 3.73366,0.646542 5.29141,0.647803 m -17.01419,15.123724 c 0.007,2.571029 0.30877,5.017922 0.63015,7.561862 l 6.93171,0.630153 v -6.301549 c -2.68509,-0.862688 -4.66882,-1.857705 -7.56186,-1.890466 m -15.12373,6.931701 c -1.39012,0.679311 -2.32527,1.304424 -3.30201,2.557794 -1.36366,1.74932 -3.97942,7.68853 0.29051,8.21345 2.94786,0.36297 3.59377,-4.38273 3.62969,-6.3589 0.029,-1.58106 -0.17456,-2.91194 -0.61819,-4.412344 M 143.4858,133.52251 c 3.9706,-0.44237 5.73882,-4.02291 9.45926,-4.7249 3.95801,-0.74737 8.55624,1.99759 12.59617,2.20428 -0.55202,-2.43366 -1.57287,-5.3872 -3.86475,-6.73132 -4.4804,-2.62774 -14.00834,-0.3428 -16.96944,3.81937 -1.10656,1.55586 -1.14121,3.60575 -1.22124,5.43257 m 99.56451,-9.45233 c 1.15823,2.82562 3.026,3.56857 5.66258,4.88623 4.86102,2.42987 8.39933,4.14642 13.87161,2.35363 3.27176,-1.07127 5.75268,-2.38829 6.30217,-5.97955 -2.3007,0.15439 -4.08529,1.29812 -6.311,1.6674 -2.18097,0.36171 -4.72365,-0.16447 -6.89767,-0.47892 -4.64929,-0.673 -7.74021,-3.89058 -12.62769,-2.44879 m -51.04256,9.45233 c 0.5539,-2.32779 0.62826,-4.54594 0.63015,-6.9317 -4.28443,0.71522 -3.22703,4.64046 -0.63015,6.9317 m 34.65853,-5.04124 c 4.78288,3.50492 10.33706,5.82894 11.34279,12.6031 7.02497,-0.9572 5.20571,-7.69545 1.2351,-11.43164 -3.16652,-2.98 -8.83981,-2.75504 -12.57789,-1.17146 m -8.19202,9.45233 c 2.95921,-0.88663 6.55929,-2.3656 8.19202,-5.04124 -3.78913,0.10965 -7.85488,0.71459 -8.19202,5.04124 m -68.05676,1.2603 c 3.08713,-0.90741 4.77784,-1.62958 5.04125,-5.04123 -2.03919,-0.3781 -4.78036,-1.17525 -6.65822,0.11279 -1.7512,1.20108 -1.52372,3.70027 -1.53317,5.55861 -0.0271,5.07715 0.36612,9.92746 5.85035,12.22374 3.36819,1.41029 9.05218,1.2244 12.33026,-0.34154 2.77394,-1.32522 2.34606,-5.2492 6.2e-4,-6.82522 -2.54015,-1.70708 -4.29387,0.44049 -6.86112,0.3384 -3.39654,-0.13422 -6.27572,-3.53958 -8.16997,-6.02555 m 95.78364,-3.78093 v 1.26032 c 2.85902,1.98877 6.13897,2.45635 9.43657,3.40032 4.26742,1.22123 7.41378,2.89745 11.98871,2.90123 -0.59361,-3.5692 -4.45016,-4.64802 -7.56186,-5.76214 -5.10174,-1.82682 -8.33255,-4.4615 -13.86342,-1.79973 m -57.97427,1.26032 c 0,2.5893 -0.44489,5.66887 0.32326,8.16744 1.91945,6.24421 9.56954,12.82114 16.06077,13.25783 v 1.89046 c 4.81565,0.0535 8.56002,2.86154 13.23325,3.78094 -0.2697,-11.52428 -12.09015,-17.1629 -20.91863,-21.95461 -3.04868,-1.65479 -5.28762,-4.23905 -8.69865,-5.14206 m -31.50776,1.89046 c 0.0775,2.3404 0.26719,3.50556 2.52062,4.41109 0.5476,-2.63279 0.28231,-3.94288 -2.52062,-4.41109 m 63.01551,17.64434 c 5.65817,1.06686 11.28671,2.97308 17.01419,1.1387 2.25974,-0.72342 4.21575,-1.35547 5.04124,-3.65931 -5.49747,-0.70073 -10.00308,-2.9422 -15.75387,-2.15765 -3.5648,0.4871 -5.98648,0.60243 -6.30156,4.67826 m 0.63016,5.04125 1.26031,4.41108 c 5.07401,0.45623 9.18703,2.43051 14.49104,1.70773 8.66969,-1.18217 17.05578,-6.04004 25.83889,-6.11881 -0.259,7.91349 -9.43783,9.22043 -15.12372,11.97294 1.89487,3.75762 5.94803,3.72864 9.4498,1.95034 4.85409,-2.46517 12.47141,-8.99862 11.85448,-15.17414 -0.49404,-4.94608 -7.5543,-5.09669 -11.2218,-5.04817 -7.44718,0.0977 -13.76196,4.41235 -20.79512,6.00978 -5.15845,1.17146 -10.70193,-0.80533 -15.75388,0.28925 m -73.098,15.12372 c 0.8211,-0.075 1.70394,-0.063 2.49163,-0.36108 6.22153,-2.35047 1.56153,-7.94247 0.86458,-12.24202 -0.41023,-2.53197 0.49278,-4.54089 1.05488,-6.93171 -6.16544,0.46884 -8.59154,7.77044 -7.37345,13.17655 0.5035,2.23641 2.15955,4.19872 2.96236,6.35826 m 13.86342,25.2062 c -4.35627,0.3132 -6.65633,3.92713 -10.71264,4.78982 -2.34418,0.49845 -4.99651,-0.23064 -5.2284,-2.94283 -0.0857,-0.99943 0.11973,-2.11102 0.18715,-3.10729 3.33479,-0.8003 8.35272,-4.24473 9.45233,-7.56186 8.92741,-0.65474 17.99408,-10.00308 18.26253,-18.90403 0.0889,-2.95354 -1.19919,-11.17769 -4.68835,-12.02588 -1.71024,-0.4159 -2.44437,1.09836 -2.04737,2.56032 1.36364,5.02171 5.56804,7.65324 2.14441,13.24334 -4.70474,7.68285 -14.90758,9.47754 -21.23308,15.39658 -2.77836,2.60002 -5.8157,6.31164 -5.56301,10.38559 0.55832,8.9942 13.46579,9.93251 18.47237,3.98384 1.30127,-1.54577 0.9528,-3.93784 0.95406,-5.8176 m 95.78358,-23.31573 c 1.64659,0.6919 3.25412,0.62574 5.04124,0.63015 v -2.52062 c -1.92261,0.25963 -3.34109,0.9654 -5.04124,1.89047 m -69.31706,13.23326 c 0.13043,11.10774 12.10086,10.33895 20.05783,12.25903 4.25607,1.02716 7.61102,2.75756 11.44992,4.75515 l -0.63015,-6.93171 c -2.42926,-1.33655 -4.22835,-3.17534 -6.93171,-4.17792 -5.09858,-1.8911 -10.54186,-1.75813 -15.75388,-3.09973 -2.81553,-0.72531 -5.33112,-2.20743 -8.19201,-2.80482 m -58.60443,35.91884 c -6.4e-4,-3.45514 0.32011,-7.56249 -2.14185,-10.35156 -1.29219,-1.46385 -3.00306,-1.54955 -4.79233,-1.94214 -4.4964,-0.98808 -10.1724,-1.77199 -14.39778,0.7543 -2.32243,1.38823 -2.98252,6.0999 -0.52316,7.74083 2.85713,1.90684 8.94758,0.69631 12.40279,1.64092 3.12714,0.85512 6.20311,1.99129 9.45233,2.15765 m 149.97692,1.89046 h 3.15077 c 1.34035,-2.21499 3.2075,-2.4847 5.56428,-3.27302 5.0469,-1.68819 9.23618,-1.76822 14.60069,-1.76822 0,-1.87597 0.54761,-4.89567 -0.6478,-6.48934 -0.92948,-1.23951 -2.96425,-1.70079 -4.39344,-2.00641 -4.2775,-0.91625 -12.71086,-1.39391 -16.11307,1.88543 -2.8691,2.76512 -2.16143,8.05086 -2.16143,11.65156 m -114.68824,-1.89046 c 0.97611,4.08152 4.70852,5.80814 6.39733,9.47754 1.15319,2.50612 0.7751,5.83145 3.14826,7.60596 3.61772,2.70526 10.05475,3.31084 14.39085,4.19369 9.8027,1.99507 19.61358,2.15071 29.62674,1.4651 5.77034,-0.39573 11.6667,-0.52176 16.97702,-3.27365 3.75951,-1.94781 2.53259,-5.86989 3.48664,-9.27903 0.92822,-3.31651 3.53139,-5.82705 6.63302,-7.03883 -0.95405,-5.71551 -10.05854,-0.82425 -13.50044,0.74421 -11.18526,5.09543 -26.64045,8.2859 -38.80244,5.1156 -9.734,-2.53764 -17.9569,-8.91733 -28.35698,-9.01059 m -51.67272,16.38404 c 5.88728,0 9.33575,-1.10278 13.56825,-5.41556 2.0773,-2.1167 3.1693,-5.76088 0.72499,-8.08678 -2.79316,-2.65926 -6.24219,-1.56404 -8.56204,0.9112 -3.6498,3.89373 -5.71262,7.15794 -5.7312,12.59114 m 169.51173,-11.97296 c 0.26971,4.01724 4.56421,9.50149 8.20147,11.32263 4.21511,2.1104 6.24989,-1.46258 6.2921,-5.02107 -5.53717,-2.67942 -7.69986,-8.72387 -14.49357,-6.30156 m -117.83901,0 c -2.77205,0.92003 -4.29766,8.40754 -0.98682,9.63634 3.39149,1.25842 5.22398,-2.84515 3.75699,-5.34876 -0.88348,-1.50733 -2.0165,-2.70084 -2.77017,-4.28758 m 79.39955,1.89047 c -1.21809,3.9057 -1.78838,7.00543 3.15078,7.56186 v -7.56186 h -3.15078 M 113.2384,247.5806 c 0.26259,2.62017 0.99363,6.37905 2.51287,8.5827 2.01889,2.92896 6.78822,4.20503 10.06541,4.71987 4.9268,0.77446 9.42548,1.50481 14.5184,1.15697 2.16017,-0.14746 4.14138,-1.04481 6.30155,-1.19226 5.23911,-0.35793 8.89275,-1.53001 13.86341,-3.16905 2.31834,-0.76438 5.07211,-1.33593 6.75338,-3.24845 2.52629,-2.87351 2.06879,-7.08609 2.06879,-10.63071 -5.8031,0.0195 -10.34147,2.69579 -15.75387,4.35436 -3.61142,1.10718 -8.1977,1.43361 -11.97296,1.83754 -9.75606,1.04479 -18.78373,-2.21248 -28.35698,-2.41097 m 127.29134,-3.15078 c 0,2.76953 -0.5331,6.19379 1.04165,8.63249 2.14379,3.32029 6.80946,4.46528 10.30114,5.77915 9.80585,3.68957 19.91039,5.27944 30.24745,2.51307 3.89941,-1.04354 8.68103,-1.53191 11.56146,-4.69908 2.2339,-2.45571 1.72788,-6.6141 2.30196,-9.70501 -4.34934,0.22307 -8.32561,2.18664 -12.60311,2.87351 -5.53149,0.88851 -12.05612,0.62511 -17.64434,0.24323 -6.16859,-0.42094 -12.92952,-2.22004 -18.90465,-3.8786 -2.21058,-0.61377 -3.97503,-1.59178 -6.30156,-1.75876 z"
     id="path6"
     inkscape:connector-curvature="0" />
  <path
     style="fill:#aa111f;stroke:none;stroke-width:0.88208431;fill-opacity:1"
     d="m 138.75992,345.25121 c -4.3275,0 -11.75465,-1.41663 -15.51145,1.03998 -2.46984,1.61509 -3.65007,5.35425 -5.15402,7.77998 -3.22578,5.20165 -6.70119,7.62386 -12.85373,7.93964 v 2.64626 c -4.89293,-8.9e-4 -9.754098,0.10937 -14.112653,-2.49542 -15.706746,-9.38714 -18.703628,-31.48247 -14.116789,-47.78339 1.847349,-6.56536 4.474461,-12.71878 10.248144,-16.90074 11.540311,-8.35863 33.391308,-2.58892 33.858818,13.3724 h 17.64168 c -1.27902,-12.84403 -8.80673,-25.02385 -21.20442,-30.12053 -5.70885,-2.34723 -12.42063,-2.51659 -18.489378,-2.51659 -5.7212,0 -13.398157,0.52131 -18.373994,3.65536 -19.599297,12.34565 -23.133632,34.15519 -22.167132,55.44429 0.495996,10.92726 4.517418,21.55373 11.842776,29.50925 1.747938,1.89913 2.830696,4.26223 4.995772,5.76971 23.46618,16.34062 62.007976,3.04319 63.396376,-27.3402 m 23.81628,4.41042 h -15.87752 c 8.8e-4,8.7247 3.97467,18.7293 11.50238,23.89037 4.31604,2.9594 9.92962,3.77621 14.96015,4.74121 18.27414,3.5054 43.75932,-1.47132 47.34588,-23.33907 1.29313,-7.88143 0.0759,-18.23621 -5.66651,-24.24938 -6.4251,-6.72766 -18.63844,-9.52828 -27.56955,-10.18631 -9.01666,-0.66421 -24.65867,-5.21753 -23.2535,-16.72168 1.42192,-11.63557 17.02422,-12.83785 25.90328,-9.6941 3.44454,1.21992 6.10667,3.54598 9.70293,4.39807 0.44193,3.33869 1.66449,6.28044 1.76417,9.70293 3.78502,0 11.34272,1.43162 14.46354,-1.03998 5.012,-3.96938 -0.77095,-15.75138 -4.14404,-18.88278 -12.57146,-11.66909 -36.75733,-14.16627 -51.69808,-5.42835 -13.44649,7.8629 -17.77929,31.10847 -6.64738,42.52617 8.81996,9.04578 23.59928,7.7791 34.76029,10.89727 8.17781,2.2846 18.42586,7.39275 15.42413,17.79605 -3.64742,12.64204 -24.44961,13.48002 -33.79971,6.92966 -3.62625,-2.54041 -5.94877,-7.21722 -7.17046,-11.34008 z"
     id="path20"
     inkscape:connector-curvature="0" />
  <path
     style="fill:#aa111f;stroke:none;stroke-width:0.88208431;fill-opacity:1"
     d="m 331.05431,362.01081 h 2.64625 c 1.29931,-5.81205 3.5107,-10.64587 3.52834,-16.7596 h -15.87752 c -5.06228,15.77255 -22.54255,25.68189 -36.88171,13.57263 -4.88939,-4.12904 -8.54211,-13.59204 -9.6403,-19.82573 -1.92383,-10.9202 -0.73125,-27.22994 6.51066,-36.07372 8.90112,-10.86992 24.64103,-13.0425 34.80352,-2.20521 2.65243,2.82796 3.91469,6.5486 5.20783,10.13074 h 15.87752 c -0.008,-10.7579 -5.53861,-24.82362 -17.64169,-26.46253 -1.12907,-3.86265 -5.18577,-3.76915 -8.59238,-4.98642 -10.59384,-3.78414 -26.54986,-1.48543 -35.51184,5.25634 -17.82868,13.41121 -21.20442,41.72788 -16.41206,62.35807 5.38866,23.20411 25.7701,36.71676 49.04918,30.98762 8.13988,-2.00409 21.79631,-6.18958 22.9342,-15.99219 z"
     id="path24"
     inkscape:connector-curvature="0" />
  <path
     style="fill:#aa111f;stroke:none;stroke-width:0.88208431;fill-opacity:1"
     d="m 228.73252,279.97697 v 96.14719 h 17.64169 v -96.14719 z"
     id="path38"
     inkscape:connector-curvature="0" />
</svg>
