<?xml version="1.0" encoding="UTF-8" standalone="no"?>
<!-- Generator: Adobe Illustrator 25.2.1, SVG Export Plug-In . SVG Version: 6.00 Build 0)  -->

<svg
   xmlns:dc="http://purl.org/dc/elements/1.1/"
   xmlns:cc="http://creativecommons.org/ns#"
   xmlns:rdf="http://www.w3.org/1999/02/22-rdf-syntax-ns#"
   xmlns:svg="http://www.w3.org/2000/svg"
   xmlns="http://www.w3.org/2000/svg"
   xmlns:sodipodi="http://sodipodi.sourceforge.net/DTD/sodipodi-0.dtd"
   xmlns:inkscape="http://www.inkscape.org/namespaces/inkscape"
   version="1.1"
   id="Capa_1"
   x="0px"
   y="0px"
   viewBox="0 0 400 400"
   xml:space="preserve"
   sodipodi:docname="uv.svg"
   width="400"
   height="400"
   inkscape:version="0.92.4 (5da689c313, 2019-01-14)"><metadata
   id="metadata165"><rdf:RDF><cc:Work
       rdf:about=""><dc:format>image/svg+xml</dc:format><dc:type
         rdf:resource="http://purl.org/dc/dcmitype/StillImage" /><dc:title></dc:title></cc:Work></rdf:RDF></metadata><defs
   id="defs163" /><sodipodi:namedview
   pagecolor="#ffffff"
   bordercolor="#666666"
   borderopacity="1"
   objecttolerance="10"
   gridtolerance="10"
   guidetolerance="10"
   inkscape:pageopacity="0"
   inkscape:pageshadow="2"
   inkscape:window-width="1920"
   inkscape:window-height="1017"
   id="namedview161"
   showgrid="false"
   inkscape:zoom="0.87407407"
   inkscape:cx="-43.950419"
   inkscape:cy="278.82802"
   inkscape:window-x="-8"
   inkscape:window-y="-8"
   inkscape:window-maximized="1"
   inkscape:current-layer="Capa_1" />
<style
   type="text/css"
   id="style2">
	.st0{fill-rule:evenodd;clip-rule:evenodd;}
</style>
<g
   id="g158"
   transform="matrix(2.6387141,0,0,2.6387141,-228.56135,-160.5166)"
   style="fill:#000000;fill-opacity:1">
	<g
   id="g156"
   style="fill:#000000;fill-opacity:1">
		<path
   class="st0"
   d="m 195.6,174 c -0.7,0 -1.1,0.3 -1.4,0.6 -0.3,0.3 -1,0.7 -1,0.4 0,-0.3 -0.1,-0.3 0.3,-0.5 0.3,-0.2 1.6,-0.9 1.1,-1.6 -0.5,-0.7 -1.2,-0.8 -1.2,-1.4 0.1,-0.6 0,-0.4 0,-0.4 0,0 -0.2,0.2 -0.4,0.1 -0.2,0 -0.6,-0.4 -0.6,-0.4 0,0 0,0.3 -0.2,0.4 -0.2,0.1 -0.6,0.1 -0.6,0.1 0,0 0.2,0.3 0.1,0.7 -0.1,0.3 -0.6,0.5 -0.8,1.1 -0.2,0.6 0,1.1 0.9,2 -1.4,-0.5 -1.3,-0.5 -1.7,-0.5 -0.4,0 -0.9,0.1 -1.3,0.4 0.3,0.7 0.4,0.7 0.7,1 0.3,0.3 0.3,0.5 1.4,0.5 1.1,0 1.6,-0.9 1.8,0.5 0.1,0.6 -0.3,1 0,1.1 0.3,0.1 1,-0.1 1,-0.9 0,-0.8 -0.2,-1 0.3,-1 0.5,0 0.6,-0.3 1,-0.7 0.3,-0.4 0.5,-0.5 0.8,-0.5 0.3,0 0.5,0.1 0.5,0.1 0,0 0.1,-1.1 -0.7,-1.1 z"
   id="path4"
   inkscape:connector-curvature="0"
   style="clip-rule:evenodd;fill-rule:evenodd;fill:#000000;fill-opacity:1" />
		<rect
   x="201.60001"
   y="170.7"
   class="st0"
   width="0.30000001"
   height="1.4"
   id="rect6"
   style="clip-rule:evenodd;fill-rule:evenodd;fill:#000000;fill-opacity:1" />
		<rect
   x="203.3"
   y="168.2"
   class="st0"
   width="0.40000001"
   height="2"
   id="rect8"
   style="clip-rule:evenodd;fill-rule:evenodd;fill:#000000;fill-opacity:1" />
		<path
   class="st0"
   d="m 191.1,168.9 c 0.1,0.3 0.1,0.9 0.2,0.9 0.1,0 0,-0.6 0.1,-0.7 0,-0.2 -0.2,-1.1 -0.2,-1.1 h 0.2 c 0,0 0,-0.1 -0.1,-0.4 -0.3,-1.2 0,-1 0.1,-1.1 0.1,-0.1 0.1,-0.1 0.4,0.6 0.2,-1.8 -0.1,-2.2 -0.2,-2.4 -0.1,-0.1 -0.1,-0.6 0.1,-0.7 0.1,-0.2 0.1,-1 0,-0.9 -0.1,0.1 -0.6,0.3 -0.8,0.5 -0.3,0.1 -0.1,0.3 0.1,0.5 0.2,0.2 0.1,0.5 0.1,0.5 0,0 -0.2,0.1 -0.6,0.1 -0.3,0 -0.3,2.1 -0.3,2.1 0,0 0.1,-0.2 0.3,-0.4 0.2,-0.3 0.1,0.4 0,0.9 0,0.5 0.1,0.6 0.3,0.6 0.2,0 0.3,0.7 0.3,1 z"
   id="path10"
   inkscape:connector-curvature="0"
   style="clip-rule:evenodd;fill-rule:evenodd;fill:#000000;fill-opacity:1" />
		<path
   class="st0"
   d="m 187.4,164.7 c -0.3,0 -0.6,-0.1 -0.6,-0.1 0,0 -0.1,-0.3 0.1,-0.5 0.2,-0.2 0.4,-0.4 0.1,-0.5 -0.3,-0.1 -0.8,-0.4 -0.8,-0.5 -0.1,-0.1 -0.1,0.7 0,0.9 0.1,0.2 0.2,0.6 0.1,0.7 -0.1,0.1 -0.4,0.6 -0.2,2.4 0.3,-0.8 0.3,-0.7 0.4,-0.6 0.1,0.1 0.3,-0.1 0.1,1.1 -0.1,0.4 -0.1,0.4 -0.1,0.4 h 0.2 c 0,0 -0.2,0.9 -0.2,1.1 0,0.2 0,0.7 0.1,0.7 0.1,0 0.2,-0.6 0.2,-0.9 0.1,-0.3 0.1,-0.9 0.3,-0.9 0.2,0 0.3,-0.1 0.3,-0.6 0,-0.5 -0.2,-1.2 0,-0.9 0.2,0.3 0.3,0.4 0.3,0.4 0,0 0,-2.2 -0.3,-2.2 z"
   id="path12"
   inkscape:connector-curvature="0"
   style="clip-rule:evenodd;fill-rule:evenodd;fill:#000000;fill-opacity:1" />
		<path
   class="st0"
   d="m 206.2,159 c 0,0 -0.9,0 -1.1,1.7 -0.2,1.7 -0.8,1.2 -0.7,0.2 0.1,-0.9 0.8,-2.5 0.5,-2.8 -0.3,-0.3 -0.9,0.2 -1.2,-0.2 0,0.6 -0.2,0.6 -0.4,0.7 -0.2,0.1 -0.6,0.2 -0.6,0.5 0,0.3 0.1,0.1 0.1,0.3 0,0.2 -0.2,0.2 -0.2,0.4 0,0.2 0.3,0.5 0.3,0.7 0,0.2 -0.3,0.2 -0.6,-0.3 -0.3,-0.5 -0.9,-1.5 -1.1,-1.2 -0.2,0.2 0.1,0.6 0.2,0.8 0.1,0.2 0.5,1.2 -0.2,1.4 -0.3,0.1 -0.5,0.5 0.1,0.6 0.6,0.1 1.2,0.1 1.6,0.5 0.3,0.4 0.2,0.3 0,0.4 -0.2,0.1 -0.7,0.3 -0.7,0.5 0,0.2 0.1,1.1 -0.2,1.4 -0.3,0.4 -0.3,0.5 -0.5,0.7 0.2,0.2 0.3,0.3 0.7,0.3 0.1,-0.6 0.7,-1.2 1,-1.2 0,0 0.2,-0.1 0.2,-0.5 0,-0.4 0.2,-0.8 0.5,-0.8 0.3,0 0.6,0.8 0.8,0.8 0.3,0 0.5,0.4 0.2,0.6 -0.2,0.2 -0.8,0.5 -0.5,0.8 0.3,0.3 0.5,0.3 1.1,-0.1 0.5,-0.4 0.1,-0.7 0.1,-1.6 0,-0.8 0.3,-2.5 0.4,-2.9 0.2,0 0.4,-0.2 0.4,-0.4 0,-0.2 -0.1,-0.4 -0.1,-0.9 -0.2,-0.4 -0.1,-0.4 -0.1,-0.4 z"
   id="path14"
   inkscape:connector-curvature="0"
   style="clip-rule:evenodd;fill-rule:evenodd;fill:#000000;fill-opacity:1" />
		<path
   class="st0"
   d="m 206.5,145.3 c 0.1,-0.2 0.1,-1 0,-0.9 -0.1,0.1 -0.6,0.4 -0.9,0.5 -0.3,0.1 -0.1,0.3 0.1,0.6 0.2,0.3 0.1,0.6 0.1,0.6 0,0 -0.2,0.1 -0.6,0.1 -0.3,0 -0.3,2.3 -0.3,2.3 0,0 0.1,-0.2 0.3,-0.5 0.2,-0.3 0.1,0.4 0,1 0,0.5 0.1,0.7 0.3,0.7 0.2,0 0.2,0.6 0.3,1 0.1,0.3 0.1,0.9 0.2,0.9 0.1,0 0,-0.6 0.1,-0.8 0,-0.2 -0.2,-1.1 -0.2,-1.1 h 0.2 c 0,0 0,-0.1 -0.1,-0.4 -0.3,-1.3 0,-1.1 0.1,-1.1 0.1,-0.1 0.1,-0.1 0.4,0.7 0.2,-1.9 -0.1,-2.3 -0.2,-2.5 0,-0.5 0,-0.9 0.2,-1.1 z"
   id="path16"
   inkscape:connector-curvature="0"
   style="clip-rule:evenodd;fill-rule:evenodd;fill:#000000;fill-opacity:1" />
		<path
   class="st0"
   d="m 202.1,146 c -0.3,0 -0.6,-0.1 -0.6,-0.1 0,0 -0.1,-0.3 0.1,-0.6 0.2,-0.3 0.4,-0.4 0.1,-0.6 -0.3,-0.1 -0.8,-0.4 -0.9,-0.5 -0.1,-0.1 -0.1,0.7 0,0.9 0.1,0.2 0.2,0.6 0.1,0.8 -0.1,0.1 -0.4,0.6 -0.2,2.5 0.3,-0.8 0.3,-0.7 0.4,-0.7 0.1,0.1 0.3,-0.1 0.1,1.1 -0.1,0.4 -0.1,0.4 -0.1,0.4 h 0.2 c 0,0 -0.2,1 -0.2,1.1 0,0.2 0,0.8 0.1,0.8 0.1,0 0.2,-0.6 0.2,-0.9 0.1,-0.3 0.1,-1 0.3,-1 0.2,0 0.3,-0.1 0.3,-0.7 0,-0.5 -0.2,-1.3 0,-1 0.2,0.3 0.3,0.5 0.3,0.5 0,0 0.1,-2 -0.2,-2 z"
   id="path18"
   inkscape:connector-curvature="0"
   style="clip-rule:evenodd;fill-rule:evenodd;fill:#000000;fill-opacity:1" />
		<path
   class="st0"
   d="m 184.4,149.6 c 0,0 -0.9,0 -1.1,1.7 -0.2,1.7 -0.8,1.2 -0.7,0.2 0.1,-0.9 0.8,-2.5 0.5,-2.8 -0.3,-0.3 -0.9,0.2 -1.2,-0.2 0,0.6 -0.2,0.6 -0.4,0.7 -0.2,0.1 -0.6,0.2 -0.6,0.5 0,0.3 0.1,0.1 0.1,0.3 0,0.2 -0.2,0.2 -0.2,0.4 0,0.2 0.3,0.5 0.3,0.7 0,0.2 -0.3,0.2 -0.6,-0.3 -0.3,-0.5 -0.9,-1.5 -1.1,-1.2 -0.2,0.2 0.1,0.6 0.2,0.8 0.1,0.2 0.5,1.2 -0.2,1.4 -0.3,0.1 -0.5,0.5 0.1,0.6 0.6,0.1 1.2,0.1 1.6,0.5 0.3,0.4 0.2,0.3 0,0.4 -0.2,0.1 -0.7,0.3 -0.7,0.5 0,0.2 0.1,1.1 -0.2,1.4 -0.3,0.4 -0.3,0.5 -0.5,0.7 0.2,0.2 0.3,0.3 0.7,0.3 0.1,-0.6 0.7,-1.2 1,-1.2 0,0 0.2,-0.1 0.2,-0.5 0,-0.4 0.2,-0.8 0.5,-0.8 0.3,0 0.6,0.8 0.8,0.8 0.3,0 0.5,0.4 0.2,0.6 -0.2,0.2 -0.8,0.5 -0.5,0.8 0.3,0.3 0.5,0.3 1.1,-0.1 0.5,-0.4 0.1,-0.7 0.1,-1.6 0,-0.8 0.3,-2.5 0.4,-2.9 0.2,0 0.4,-0.2 0.4,-0.4 0,-0.2 -0.1,-0.4 -0.1,-0.9 -0.2,-0.4 -0.1,-0.4 -0.1,-0.4 z"
   id="path20"
   inkscape:connector-curvature="0"
   style="clip-rule:evenodd;fill-rule:evenodd;fill:#000000;fill-opacity:1" />
		<path
   class="st0"
   d="m 191.7,140.4 c 0,0 -0.9,0 -1.1,1.7 -0.2,1.7 -0.8,1.2 -0.7,0.2 0.1,-0.9 0.8,-2.5 0.5,-2.8 -0.3,-0.3 -0.9,0.2 -1.2,-0.2 0,0.6 -0.2,0.6 -0.4,0.7 -0.2,0.1 -0.6,0.2 -0.6,0.5 0,0.3 0.1,0.1 0.1,0.3 0,0.2 -0.2,0.2 -0.2,0.4 0,0.2 0.3,0.5 0.3,0.7 0,0.2 -0.3,0.2 -0.6,-0.3 -0.3,-0.5 -0.9,-1.5 -1.1,-1.2 -0.2,0.2 0.1,0.6 0.2,0.8 0.1,0.2 0.5,1.2 -0.2,1.4 -0.3,0.1 -0.5,0.5 0.1,0.6 0.6,0.1 1.2,0.1 1.6,0.5 0.3,0.4 0.2,0.3 0,0.4 -0.2,0.1 -0.7,0.3 -0.7,0.5 0,0.2 0.1,1.1 -0.2,1.4 -0.3,0.4 -0.3,0.5 -0.5,0.7 0.2,0.2 0.3,0.3 0.7,0.3 0.1,-0.6 0.7,-1.2 1,-1.2 0,0 0.2,-0.1 0.2,-0.5 0,-0.4 0.2,-0.8 0.5,-0.8 0.3,0 0.6,0.8 0.8,0.8 0.3,0 0.5,0.4 0.2,0.6 -0.2,0.2 -0.8,0.5 -0.5,0.8 0.3,0.3 0.5,0.3 1.1,-0.1 0.5,-0.4 0.1,-0.7 0.1,-1.6 0,-0.8 0.3,-2.5 0.4,-2.9 0.2,0 0.4,-0.2 0.4,-0.4 0,-0.2 -0.1,-0.4 -0.1,-0.9 -0.2,-0.3 -0.1,-0.4 -0.1,-0.4 z"
   id="path22"
   inkscape:connector-curvature="0"
   style="clip-rule:evenodd;fill-rule:evenodd;fill:#000000;fill-opacity:1" />
		<path
   class="st0"
   d="m 164.1,73.6 c 0.7,0 1.3,-0.6 1.3,-1.3 0,-0.7 -0.6,-1.3 -1.3,-1.3 -0.7,0 -1.3,0.6 -1.3,1.3 0.1,0.7 0.6,1.3 1.3,1.3 z"
   id="path24"
   inkscape:connector-curvature="0"
   style="clip-rule:evenodd;fill-rule:evenodd;fill:#000000;fill-opacity:1" />
		<path
   class="st0"
   d="m 146.9,78.2 c 0.2,0 0.3,0 0.5,-0.1 -0.3,-1.4 -0.5,-2.9 -0.6,-4.7 1.1,1.4 2.3,2.8 3.3,4.1 0.1,-0.1 0.2,-0.1 0.4,-0.1 0.4,-1.7 0.8,-3.5 1.2,-5.2 0.5,1.5 1.1,3.1 1.5,4.7 0.3,-0.1 0.5,-0.2 0.8,-0.2 0.3,-0.1 0.6,-0.1 0.9,-0.1 -0.8,-2 -1.6,-4.1 -2.5,-6.8 -0.1,0.1 -0.3,0.1 -0.4,0.2 -0.1,0 -0.3,0 -0.4,0 -0.4,1.9 -0.9,3.7 -1.3,5.3 -1.2,-1.4 -2.3,-2.8 -3.4,-4.3 -0.1,0.1 -0.3,0.1 -0.4,0.2 -0.1,0 -0.3,0 -0.4,0 0.2,2.7 0.5,5.1 0.6,7.2 -0.1,-0.1 0.1,-0.2 0.2,-0.2 z"
   id="path26"
   inkscape:connector-curvature="0"
   style="clip-rule:evenodd;fill-rule:evenodd;fill:#000000;fill-opacity:1" />
		<path
   class="st0"
   d="m 143,79.6 c 0.1,0 0.3,-0.1 0.4,-0.1 0,-2.6 0.2,-5.2 0.4,-7.8 -0.1,0.1 -0.3,0.1 -0.4,0.2 -0.1,0.1 -0.3,0.1 -0.5,0.1 0,1.8 0,3.7 -0.2,5.5 -1.2,-1.4 -2.4,-2.8 -3.4,-4.3 -0.3,0.1 -0.6,0.3 -0.9,0.3 -0.3,0.1 -0.6,0.2 -0.9,0.3 1.7,1.9 3.4,3.9 5,5.9 0.2,0 0.3,-0.1 0.5,-0.1 z"
   id="path28"
   inkscape:connector-curvature="0"
   style="clip-rule:evenodd;fill-rule:evenodd;fill:#000000;fill-opacity:1" />
		<path
   class="st0"
   d="m 133.7,83.8 c 0.1,-0.1 0.3,-0.1 0.4,-0.2 l -2.2,-4.6 1.5,0.6 c 1.6,0.6 3.2,1.3 4.9,1.9 l 0.8,-0.4 -3.1,-6.5 c -0.1,0.1 -0.2,0.2 -0.4,0.2 -0.1,0.1 -0.3,0.1 -0.4,0.2 l 2.1,4.4 c -2.1,-0.9 -4.2,-1.6 -6.2,-2.4 l -0.9,0.5 3.1,6.4 c 0.2,0 0.3,0 0.4,-0.1 z"
   id="path30"
   inkscape:connector-curvature="0"
   style="clip-rule:evenodd;fill-rule:evenodd;fill:#000000;fill-opacity:1" />
		<path
   class="st0"
   d="m 123.2,91.9 c 0.7,-0.6 1.2,-1.4 1.8,-2.2 l -1.9,-2.2 c -0.2,0.2 -0.4,0.4 -0.5,0.6 -0.2,0.2 -0.4,0.3 -0.6,0.5 l 1.6,1.8 c -0.1,0.3 -0.3,0.6 -0.7,1 -1.2,1.1 -2.6,0.9 -3.8,-0.5 -1.2,-1.3 -1.6,-3.1 -0.3,-4.2 0.6,-0.6 1.4,-0.8 2.2,-0.6 l 0.1,-0.1 c -0.2,-0.3 -0.4,-0.6 -0.5,-1 -0.9,0.2 -1.6,0.6 -2.3,1.2 -1.8,1.6 -2.3,3.9 -0.6,5.8 1.7,1.9 3.9,1.4 5.5,-0.1 z"
   id="path32"
   inkscape:connector-curvature="0"
   style="clip-rule:evenodd;fill-rule:evenodd;fill:#000000;fill-opacity:1" />
		<path
   class="st0"
   d="m 104.5,123.5 c 0,-0.2 0.1,-0.3 0.1,-0.5 0,-0.2 0.1,-0.3 0.2,-0.5 -0.2,-0.2 -0.6,-0.6 -0.9,-0.9 l -1.2,-1.3 c 1,-0.2 1.9,-0.5 2.9,-0.7 0.1,-0.3 0.1,-0.6 0.2,-0.9 0.1,-0.3 0.2,-0.6 0.3,-0.9 -1.5,0.3 -2.8,0.7 -4.2,1.1 l -0.3,0.1 c -0.5,-0.5 -0.9,-1.1 -1.4,-1.6 l -1.1,-1.3 c 0,0.2 -0.1,0.3 -0.1,0.5 0,0.2 -0.1,0.3 -0.2,0.5 0.7,0.7 1.4,1.4 2.1,2.1 -0.9,0.2 -1.8,0.5 -2.8,0.6 -0.1,0.3 -0.1,0.6 -0.2,0.9 -0.1,0.3 -0.2,0.6 -0.3,0.9 l 4.2,-1.2 c 0.9,1.1 1.8,2.1 2.7,3.1 z"
   id="path34"
   inkscape:connector-curvature="0"
   style="clip-rule:evenodd;fill-rule:evenodd;fill:#000000;fill-opacity:1" />
		<path
   class="st0"
   d="m 104.2,124.4 c -0.1,0 -0.3,0 -0.5,0 -0.1,0 -0.3,-0.1 -0.4,-0.1 0,0.6 -0.1,1.4 -0.2,2.4 l -2.6,-0.4 0.2,-1.1 c 0.1,-0.5 0.2,-0.9 0.3,-1.3 -0.1,0 -0.3,0 -0.5,0 -0.1,0 -0.3,-0.1 -0.4,-0.1 0,0.4 0,0.8 -0.1,1.3 l -0.2,1.1 -2.2,-0.4 c 0.1,-1.1 0.3,-1.8 0.5,-2.4 -0.1,0 -0.3,0 -0.5,0 -0.1,0 -0.3,-0.1 -0.4,-0.1 l -0.6,3.9 7,1.1 z"
   id="path36"
   inkscape:connector-curvature="0"
   style="clip-rule:evenodd;fill-rule:evenodd;fill:#000000;fill-opacity:1" />
		<path
   class="st0"
   d="m 105.9,155.7 c -0.3,-0.9 -0.8,-1.7 -1.4,-2.5 l -2.7,0.9 c 0.1,0.2 0.2,0.5 0.3,0.7 0.1,0.2 0.1,0.5 0.2,0.8 l 2.3,-0.8 c 0.2,0.2 0.5,0.5 0.7,1 0.5,1.5 -0.2,2.7 -1.9,3.3 -1.7,0.6 -3.4,0.3 -4,-1.4 -0.3,-0.8 -0.2,-1.6 0.3,-2.3 v -0.1 c -0.3,0.1 -0.7,0.1 -1.1,0.1 -0.2,0.9 -0.1,1.7 0.2,2.6 0.8,2.3 2.7,3.7 5.1,2.8 2.3,-0.8 2.7,-3 2,-5.1 z"
   id="path38"
   inkscape:connector-curvature="0"
   style="clip-rule:evenodd;fill-rule:evenodd;fill:#000000;fill-opacity:1" />
		<path
   class="st0"
   d="m 109.4,164.6 c -0.1,-0.2 -0.2,-0.5 -0.3,-0.7 l -6.4,3.2 c 0.1,0.2 0.3,0.4 0.4,0.7 0.1,0.2 0.2,0.5 0.3,0.7 l 6.4,-3.2 c -0.2,-0.3 -0.3,-0.5 -0.4,-0.7 z"
   id="path40"
   inkscape:connector-curvature="0"
   style="clip-rule:evenodd;fill-rule:evenodd;fill:#000000;fill-opacity:1" />
		<path
   class="st0"
   d="m 110.4,166.7 c -0.1,0.1 -0.2,0.2 -0.4,0.3 -0.1,0.1 -0.3,0.1 -0.4,0.2 0.4,0.5 0.8,1.1 1.3,2 l -2.3,1.3 -0.5,-0.9 c -0.2,-0.4 -0.4,-0.8 -0.6,-1.2 -0.1,0.1 -0.2,0.2 -0.4,0.3 -0.1,0.1 -0.3,0.1 -0.4,0.2 0.2,0.3 0.5,0.7 0.7,1.1 l 0.5,0.9 -1.9,1.1 c -0.6,-0.9 -0.8,-1.6 -1.1,-2.2 -0.1,0.1 -0.2,0.2 -0.4,0.3 -0.1,0.1 -0.3,0.1 -0.4,0.2 l 2,3.5 6.2,-3.6 z"
   id="path42"
   inkscape:connector-curvature="0"
   style="clip-rule:evenodd;fill-rule:evenodd;fill:#000000;fill-opacity:1" />
		<path
   class="st0"
   d="m 120.2,187 c 1.7,-1.9 -1,-3.5 0.1,-4.8 0.5,-0.5 1.2,-0.4 1.6,0 0.5,0.5 0.7,1.2 0.3,1.8 l 0.1,0.1 c 0.3,-0.3 0.7,-0.5 1.1,-0.8 -0.2,-0.6 -0.5,-1.1 -0.9,-1.5 -1.2,-1.1 -2.7,-1.1 -3.6,-0.1 -1.6,1.8 0.9,3.7 0,4.8 -0.4,0.4 -0.9,0.5 -1.5,0 -0.4,-0.4 -0.5,-0.9 -0.3,-1.5 H 117 c -0.3,0.2 -0.6,0.4 -0.9,0.5 0,0.3 0.3,1 0.9,1.5 1.1,1.1 2.4,0.9 3.2,0 z"
   id="path44"
   inkscape:connector-curvature="0"
   style="clip-rule:evenodd;fill-rule:evenodd;fill:#000000;fill-opacity:1" />
		<path
   class="st0"
   d="m 126.6,185.5 c -2.2,1.4 -4.4,2.7 -6.6,4 0.1,0.1 0.3,0.2 0.4,0.3 0.1,0.1 0.3,0.2 0.4,0.3 1.5,-1.1 3.1,-2 4.7,-3 -0.5,1.8 -1,3.6 -1.6,5.3 0.3,0.2 0.5,0.3 0.8,0.5 0.2,0.2 0.5,0.4 0.7,0.6 0.6,-2.5 1.3,-5 2.1,-7.4 -0.1,-0.1 -0.3,-0.1 -0.4,-0.2 -0.3,-0.1 -0.4,-0.3 -0.5,-0.4 z"
   id="path46"
   inkscape:connector-curvature="0"
   style="clip-rule:evenodd;fill-rule:evenodd;fill:#000000;fill-opacity:1" />
		<path
   class="st0"
   d="m 143,194.8 -1.9,4.7 -0.6,-1.5 c -0.6,-1.6 -1.2,-3.2 -1.8,-4.9 l -0.8,-0.3 -2.7,6.7 c 0.1,0 0.3,0.1 0.4,0.1 0.1,0.1 0.3,0.1 0.4,0.2 l 1.8,-4.5 c 0.7,2.1 1.6,4.2 2.4,6.2 l 1,0.4 2.7,-6.6 c -0.1,0 -0.3,-0.1 -0.4,-0.1 -0.2,-0.3 -0.4,-0.4 -0.5,-0.4 z"
   id="path48"
   inkscape:connector-curvature="0"
   style="clip-rule:evenodd;fill-rule:evenodd;fill:#000000;fill-opacity:1" />
		<path
   class="st0"
   d="m 158.2,198.2 -0.8,5 -0.9,-1.4 c -1,-1.4 -1.9,-2.9 -2.9,-4.4 l -0.9,-0.1 -1.1,7.1 c 0.1,0 0.3,0 0.4,0 0.1,0 0.3,0.1 0.4,0.1 l 0.8,-4.8 c 1.2,1.9 2.5,3.7 3.7,5.6 l 1,0.2 1.1,-7.1 c -0.1,0 -0.3,0 -0.4,0 -0.1,-0.1 -0.3,-0.1 -0.4,-0.2 z"
   id="path50"
   inkscape:connector-curvature="0"
   style="clip-rule:evenodd;fill-rule:evenodd;fill:#000000;fill-opacity:1" />
		<path
   class="st0"
   d="m 161.8,198.4 c -0.3,0 -0.5,-0.1 -0.8,-0.1 l -0.4,7.2 c 0.3,0 0.5,0 0.8,0 0.3,0 0.5,0.1 0.8,0.1 l 0.4,-7.2 c -0.3,0 -0.5,0 -0.8,0 z"
   id="path52"
   inkscape:connector-curvature="0"
   style="clip-rule:evenodd;fill-rule:evenodd;fill:#000000;fill-opacity:1" />
		<path
   class="st0"
   d="m 179,196.7 c 0.1,0.1 0.1,0.3 0.2,0.4 0,0.1 0.1,0.3 0.1,0.4 0.6,-0.3 1.3,-0.5 2.3,-0.8 l 0.7,2.6 -1,0.3 c -0.5,0.1 -0.9,0.2 -1.3,0.3 0.1,0.1 0.1,0.3 0.2,0.4 0,0.1 0.1,0.3 0.1,0.4 0.4,-0.2 0.8,-0.3 1.2,-0.4 l 1,-0.3 0.6,2.2 c -1,0.3 -1.7,0.4 -2.4,0.5 0.1,0.1 0.1,0.3 0.2,0.4 0,0.1 0.1,0.3 0.1,0.4 l 3.8,-1.1 -2,-6.9 z"
   id="path54"
   inkscape:connector-curvature="0"
   style="clip-rule:evenodd;fill-rule:evenodd;fill:#000000;fill-opacity:1" />
		<path
   class="st0"
   d="m 187.2,193.9 c -0.2,0.1 -0.5,0.2 -0.7,0.2 l 1.3,3.2 -1,0.4 c -0.4,0.2 -0.8,0.3 -1.2,0.4 0.1,0.1 0.2,0.3 0.2,0.4 0.1,0.1 0.1,0.3 0.1,0.4 0.4,-0.2 0.8,-0.4 1.1,-0.6 l 1,-0.4 0.8,2.1 c -1,0.4 -1.7,0.6 -2.3,0.8 0.1,0.1 0.2,0.3 0.2,0.4 0.1,0.1 0.1,0.3 0.1,0.4 l 3.7,-1.5 -2.7,-6.7 c -0.1,0.3 -0.3,0.4 -0.6,0.5 z"
   id="path56"
   inkscape:connector-curvature="0"
   style="clip-rule:evenodd;fill-rule:evenodd;fill:#000000;fill-opacity:1" />
		<path
   class="st0"
   d="m 193.8,192.5 c -0.4,-0.6 0,-1.2 0.5,-1.6 0.6,-0.4 1.3,-0.3 1.8,0.3 l 0.2,-0.1 c -0.2,-0.4 -0.3,-0.9 -0.4,-1.3 -0.6,0 -1.2,0.2 -1.7,0.5 -1.4,0.8 -1.9,2.2 -1.2,3.4 1.2,2.1 3.8,0.3 4.5,1.5 0.3,0.5 0.2,1.1 -0.5,1.5 -0.5,0.3 -1,0.2 -1.5,-0.2 l -0.1,0.1 c 0.1,0.4 0.2,0.7 0.2,1.1 0.3,0.1 1,0 1.7,-0.4 1.4,-0.8 1.6,-2.1 1,-3.1 -1.3,-2.4 -3.7,-0.3 -4.5,-1.7 z"
   id="path58"
   inkscape:connector-curvature="0"
   style="clip-rule:evenodd;fill-rule:evenodd;fill:#000000;fill-opacity:1" />
		<path
   class="st0"
   d="m 199.2,187.2 c -0.1,0.1 -0.3,0.1 -0.4,0.2 0.7,2.5 1.2,5 1.7,7.6 0.1,-0.1 0.2,-0.2 0.4,-0.3 0.1,-0.1 0.3,-0.2 0.4,-0.2 -0.5,-1.8 -1,-3.6 -1.4,-5.4 1.5,1.1 3.1,2.1 4.5,3.2 0.2,-0.2 0.5,-0.4 0.7,-0.6 0.2,-0.2 0.5,-0.3 0.8,-0.5 -2.2,-1.4 -4.3,-2.8 -6.4,-4.3 0,0.1 -0.1,0.2 -0.3,0.3 z"
   id="path60"
   inkscape:connector-curvature="0"
   style="clip-rule:evenodd;fill-rule:evenodd;fill:#000000;fill-opacity:1" />
		<path
   class="st0"
   d="m 207.3,180.4 c -0.1,0.1 -0.2,0.2 -0.3,0.3 l 3.4,3.8 -1.6,-0.1 c -1.7,-0.1 -3.4,-0.3 -5.2,-0.5 l -0.7,0.6 4.8,5.3 c 0.1,-0.1 0.2,-0.2 0.3,-0.3 0.1,-0.1 0.2,-0.2 0.3,-0.3 l -3.3,-3.6 c 2.2,0.3 4.4,0.4 6.6,0.6 l 0.8,-0.7 -4.8,-5.3 c -0.1,0 -0.2,0.1 -0.3,0.2 z"
   id="path62"
   inkscape:connector-curvature="0"
   style="clip-rule:evenodd;fill-rule:evenodd;fill:#000000;fill-opacity:1" />
		<path
   class="st0"
   d="m 209.5,178 c -0.2,0.2 -0.4,0.4 -0.6,0.5 l 5.3,4.8 c 0.2,-0.2 0.3,-0.4 0.5,-0.6 0.2,-0.2 0.4,-0.4 0.6,-0.5 l -5.3,-4.8 c -0.2,0.2 -0.4,0.4 -0.5,0.6 z"
   id="path64"
   inkscape:connector-curvature="0"
   style="clip-rule:evenodd;fill-rule:evenodd;fill:#000000;fill-opacity:1" />
		<path
   class="st0"
   d="m 219.1,175.8 c -0.3,0.5 -0.6,1 -1.1,1.6 l -5.1,-3.9 c -0.1,0.2 -0.3,0.5 -0.4,0.7 -0.2,0.2 -0.3,0.4 -0.5,0.6 l 5.1,3.9 c -0.4,0.5 -0.8,1 -1.2,1.4 0.1,0.1 0.3,0.1 0.4,0.2 0.1,0.1 0.2,0.2 0.3,0.3 l 3.2,-4.3 c -0.1,-0.1 -0.3,-0.1 -0.4,-0.2 -0.1,0 -0.2,-0.1 -0.3,-0.3 z"
   id="path66"
   inkscape:connector-curvature="0"
   style="clip-rule:evenodd;fill-rule:evenodd;fill:#000000;fill-opacity:1" />
		<path
   class="st0"
   d="m 218,165.9 c -0.1,0.1 -0.2,0.2 -0.2,0.3 l 4.3,2.6 -1.6,0.4 c -1.7,0.4 -3.4,0.7 -5.1,1 l -0.5,0.8 6.1,3.7 c 0.1,-0.1 0.1,-0.3 0.2,-0.4 0.1,-0.1 0.2,-0.2 0.2,-0.3 l -4.2,-2.5 c 2.2,-0.4 4.4,-0.9 6.5,-1.4 l 0.5,-0.9 -6.1,-3.7 c 0,0.1 -0.1,0.3 -0.1,0.4 z"
   id="path68"
   inkscape:connector-curvature="0"
   style="clip-rule:evenodd;fill-rule:evenodd;fill:#000000;fill-opacity:1" />
		<path
   class="st0"
   d="m 218.9,164.1 c 0.1,0 0.3,0.1 0.4,0.1 0.1,0.1 0.3,0.2 0.4,0.2 0.2,-0.6 0.4,-1.3 0.8,-2.3 l 2.4,1.1 -0.4,1 c -0.2,0.4 -0.4,0.8 -0.6,1.1 0.1,0 0.3,0.1 0.4,0.1 0.1,0.1 0.3,0.2 0.4,0.2 0.1,-0.4 0.2,-0.8 0.4,-1.2 l 0.4,-1 2,0.9 c -0.4,1 -0.8,1.6 -1.1,2.2 0.1,0 0.3,0.1 0.4,0.1 0.1,0.1 0.3,0.2 0.4,0.2 l 1.6,-3.6 -6.5,-2.9 z"
   id="path70"
   inkscape:connector-curvature="0"
   style="clip-rule:evenodd;fill-rule:evenodd;fill:#000000;fill-opacity:1" />
		<path
   class="st0"
   d="m 221,159.1 c 0.1,0 0.3,0 0.4,0.1 0.1,0 0.3,0.1 0.4,0.2 0.2,-0.7 0.3,-1.5 0.6,-2.3 l 6,2.1 c 0.1,-0.3 0.1,-0.5 0.2,-0.8 0.1,-0.2 0.2,-0.5 0.3,-0.7 l -6.7,-2.3 z"
   id="path72"
   inkscape:connector-curvature="0"
   style="clip-rule:evenodd;fill-rule:evenodd;fill:#000000;fill-opacity:1" />
		<path
   class="st0"
   d="m 224.5,144.6 c 0,0.1 -0.1,0.3 -0.1,0.4 2.3,1.3 4.4,2.6 6.6,4 0,-0.2 0,-0.3 0,-0.5 0,-0.2 0.1,-0.3 0.1,-0.5 -1.6,-0.8 -3.2,-1.8 -4.8,-2.7 1.8,-0.3 3.6,-0.8 5.4,-1 0,-0.3 0,-0.6 0.1,-0.9 0,-0.3 0.1,-0.6 0.2,-0.9 -2.5,0.6 -5,1.2 -7.5,1.6 0,0.2 0.1,0.4 0,0.5 z"
   id="path74"
   inkscape:connector-curvature="0"
   style="clip-rule:evenodd;fill-rule:evenodd;fill:#000000;fill-opacity:1" />
		<path
   class="st0"
   d="m 224.9,135.5 c 0,0.3 0.1,0.5 0.1,0.8 0,0.3 0,0.5 0,0.8 l 7.2,-0.4 c 0,-0.3 -0.1,-0.5 -0.1,-0.8 0,-0.3 0,-0.5 0,-0.8 z"
   id="path76"
   inkscape:connector-curvature="0"
   style="clip-rule:evenodd;fill-rule:evenodd;fill:#000000;fill-opacity:1" />
		<path
   class="st0"
   d="m 224.7,130.5 c 0,0.1 0.1,0.3 0.1,0.4 0,0.1 0,0.3 0,0.4 2.5,0.8 4.9,1.7 7.3,2.5 0,-0.2 0,-0.3 -0.1,-0.5 0,-0.2 0,-0.3 0,-0.5 -1.8,-0.5 -3.5,-1.1 -5.3,-1.7 1.7,-0.7 3.4,-1.5 5.1,-2.1 0,-0.3 -0.1,-0.6 -0.1,-0.9 0,-0.3 0,-0.6 0,-0.9 -2.3,1.2 -4.7,2.3 -7,3.3 z"
   id="path78"
   inkscape:connector-curvature="0"
   style="clip-rule:evenodd;fill-rule:evenodd;fill:#000000;fill-opacity:1" />
		<path
   class="st0"
   d="m 215.6,104.4 c 0.1,-0.1 0.2,-0.2 0.3,-0.3 0.1,-0.1 0.3,-0.1 0.4,-0.2 -0.4,-0.5 -0.9,-1 -1.5,-1.9 l 2.2,-1.5 0.6,0.9 c 0.3,0.4 0.5,0.8 0.7,1.1 0.1,-0.1 0.2,-0.2 0.3,-0.3 0.1,-0.1 0.3,-0.1 0.4,-0.2 -0.3,-0.3 -0.5,-0.6 -0.8,-1 l -0.6,-0.9 1.8,-1.3 c 0.6,0.9 1,1.5 1.3,2.1 0.1,-0.1 0.2,-0.2 0.3,-0.3 0.1,-0.1 0.3,-0.1 0.4,-0.2 l -2.3,-3.3 -5.8,4.1 z"
   id="path80"
   inkscape:connector-curvature="0"
   style="clip-rule:evenodd;fill-rule:evenodd;fill:#000000;fill-opacity:1" />
		<path
   class="st0"
   d="m 202.3,89.4 c 0.1,0.1 0.2,0.2 0.3,0.3 l 3.4,-3.8 v 1.7 c 0,1.7 0,3.4 0,5.3 l 0.7,0.6 4.8,-5.3 c -0.1,-0.1 -0.2,-0.2 -0.3,-0.3 -0.1,-0.1 -0.2,-0.2 -0.3,-0.3 l -3.3,3.6 c 0,-2.2 -0.1,-4.5 -0.1,-6.7 l -0.8,-0.7 -4.8,5.3 c 0.2,0.1 0.3,0.2 0.4,0.3 z"
   id="path82"
   inkscape:connector-curvature="0"
   style="clip-rule:evenodd;fill-rule:evenodd;fill:#000000;fill-opacity:1" />
		<path
   class="st0"
   d="m 189.8,81.6 c 0.2,0.1 0.3,0.1 0.5,0.2 0.2,0.1 0.3,0.2 0.4,0.3 0.3,-0.2 0.7,-0.5 1.1,-0.7 l 1.5,-0.9 c 0,1 0,2 0,3 0.3,0.1 0.6,0.2 0.8,0.4 0.3,0.1 0.5,0.3 0.8,0.5 0,-1.5 -0.1,-2.9 -0.1,-4.3 v -0.3 c 0.6,-0.3 1.2,-0.7 1.9,-1 l 1.5,-0.8 c -0.2,-0.1 -0.3,-0.1 -0.5,-0.2 -0.1,-0.1 -0.3,-0.2 -0.4,-0.3 -0.9,0.5 -1.7,1 -2.6,1.5 0,-0.9 0,-1.9 0,-2.8 -0.3,-0.1 -0.6,-0.2 -0.9,-0.4 -0.3,-0.1 -0.5,-0.3 -0.8,-0.5 l 0.2,4.4 c -1,0.6 -2.2,1.3 -3.4,1.9 z"
   id="path84"
   inkscape:connector-curvature="0"
   style="clip-rule:evenodd;fill-rule:evenodd;fill:#000000;fill-opacity:1" />
		<path
   class="st0"
   d="m 189.2,80.8 c 0.1,-0.1 0.1,-0.3 0.2,-0.4 -0.6,-0.2 -1.3,-0.4 -2.3,-0.8 l 1,-2.5 1,0.4 c 0.4,0.2 0.8,0.4 1.2,0.6 0,-0.1 0.1,-0.3 0.1,-0.4 0.1,-0.1 0.1,-0.3 0.2,-0.4 -0.4,-0.1 -0.8,-0.2 -1.2,-0.4 l -1,-0.4 0.8,-2.1 c 1,0.4 1.6,0.7 2.2,1 0,-0.1 0.1,-0.3 0.1,-0.4 0.1,-0.1 0.1,-0.3 0.2,-0.4 l -3.7,-1.5 -2.7,6.6 3.7,1.5 c 0.1,-0.1 0.1,-0.3 0.2,-0.4 z"
   id="path86"
   inkscape:connector-curvature="0"
   style="clip-rule:evenodd;fill-rule:evenodd;fill:#000000;fill-opacity:1" />
		<path
   class="st0"
   d="m 184.1,78.6 c 0,-0.1 0.1,-0.3 0.2,-0.4 -0.7,-0.1 -1.5,-0.2 -2.4,-0.4 l 1.5,-6.2 c -0.3,0 -0.5,-0.1 -0.8,-0.1 -0.3,-0.1 -0.5,-0.2 -0.7,-0.2 l -1.7,6.9 3.8,1 c 0.1,-0.3 0.1,-0.4 0.1,-0.6 z"
   id="path88"
   inkscape:connector-curvature="0"
   style="clip-rule:evenodd;fill-rule:evenodd;fill:#000000;fill-opacity:1" />
		<path
   class="st0"
   d="m 164,65.5 c -39.4,0 -71.3,32.1 -71.3,71.6 0,39.6 31.9,71.6 71.3,71.6 39.4,0 71.3,-32.1 71.3,-71.6 0,-39.5 -31.9,-71.6 -71.3,-71.6 z m 0,141.8 c -38.6,0 -69.9,-31.4 -69.9,-70.1 0,-38.8 31.3,-70.2 69.9,-70.2 38.6,0 69.9,31.4 69.9,70.1 0,38.8 -31.3,70.2 -69.9,70.2 z"
   id="path90"
   inkscape:connector-curvature="0"
   style="clip-rule:evenodd;fill-rule:evenodd;fill:#000000;fill-opacity:1" />
		<path
   class="st0"
   d="m 173.5,76.7 c 0.3,-0.7 0.7,-1.3 1.1,-2 l 2.4,0.4 c 0.2,0.7 0.3,1.5 0.4,2.3 0.3,0 0.6,0 0.9,0.1 0.3,0 0.6,0.1 0.9,0.2 L 177.5,70 c -0.1,0 -0.3,0 -0.4,0 -0.1,0 -0.3,-0.1 -0.4,-0.1 l -4.1,6.7 c 0.2,0 0.3,0 0.5,0 0.1,0 0.2,0.1 0.4,0.1 z m 2.8,-4.9 0.5,2.6 -1.9,-0.3 z"
   id="path92"
   inkscape:connector-curvature="0"
   style="clip-rule:evenodd;fill-rule:evenodd;fill:#000000;fill-opacity:1" />
		<path
   class="st0"
   d="m 196,84.8 c 0.1,0.1 0.2,0.2 0.4,0.3 0.6,-0.5 1.2,-0.8 1.9,-1.3 l 1.9,1.5 c -0.2,0.7 -0.4,1.4 -0.7,2.2 0.3,0.2 0.5,0.3 0.7,0.5 0.2,0.2 0.5,0.4 0.7,0.6 l 2,-7.6 c -0.1,-0.1 -0.2,-0.1 -0.3,-0.2 -0.1,-0.1 -0.2,-0.2 -0.3,-0.3 l -6.7,4 c 0.2,0.1 0.3,0.2 0.4,0.3 z m 5.1,-2.7 -0.7,2.5 -1.5,-1.2 z"
   id="path94"
   inkscape:connector-curvature="0"
   style="clip-rule:evenodd;fill-rule:evenodd;fill:#000000;fill-opacity:1" />
		<path
   class="st0"
   d="m 210,97 c 1.4,1.6 3.6,1.9 5.3,0.3 1.3,-1.1 1.8,-2.9 0.4,-4.6 L 213.3,90 208,94.8 Z m 3.9,-5.4 0.7,0.8 c 1,1.1 1,2.3 -0.4,3.6 -1.8,1.6 -3.1,1.3 -4,0.2 l -0.6,-0.7 z"
   id="path96"
   inkscape:connector-curvature="0"
   style="clip-rule:evenodd;fill-rule:evenodd;fill:#000000;fill-opacity:1" />
		<path
   class="st0"
   d="m 216.7,106.3 c 0.1,0.2 0.2,0.5 0.3,0.7 l 2.9,-1.7 v 0.1 c -0.2,0.4 -0.5,0.9 -0.7,1.2 l -1.3,2.2 c 0.2,0.3 0.4,0.5 0.5,0.8 0.2,0.3 0.3,0.6 0.4,0.9 l 0.4,-0.7 c 0.5,-1 1,-2.1 1.6,-3.1 0.7,0.7 1.6,1 2.4,0.5 0.6,-0.4 0.9,-0.9 0.8,-1.5 0,-0.5 -0.4,-1.1 -0.7,-1.6 l -1.1,-1.9 -6.2,3.6 c 0.4,0.1 0.6,0.3 0.7,0.5 z m 6.1,-2.6 c 0.3,0.6 0.8,1.2 0.1,1.8 -0.2,0.1 -0.3,0.2 -0.4,0.3 -0.9,0.5 -1.7,0.3 -2.1,-0.7 z"
   id="path98"
   inkscape:connector-curvature="0"
   style="clip-rule:evenodd;fill-rule:evenodd;fill:#000000;fill-opacity:1" />
		<path
   class="st0"
   d="m 220.9,114.9 c 0.1,0.2 0.1,0.5 0.2,0.8 l 3,-1 c 0.6,1.8 1.4,2.9 3.2,2.3 1.1,-0.4 1.4,-1.3 0.9,-2.7 l -0.8,-2.4 -6.8,2.3 c 0.1,0.2 0.2,0.4 0.3,0.7 z m 6.5,-1.4 0.2,0.6 c 0.2,0.5 -0.2,1.1 -1,1.4 -0.6,0.2 -1.2,0.2 -1.6,-0.4 -0.1,-0.2 -0.2,-0.4 -0.3,-0.6 z"
   id="path100"
   inkscape:connector-curvature="0"
   style="clip-rule:evenodd;fill-rule:evenodd;fill:#000000;fill-opacity:1" />
		<path
   class="st0"
   d="m 222.8,120.5 c 0.1,0.3 0.1,0.5 0.1,0.8 l 3.1,-0.7 c 0.4,1.8 1.1,3.1 2.9,2.7 1.1,-0.3 1.5,-1.2 1.2,-2.6 l -0.6,-2.5 -7,1.6 c 0.2,0.2 0.2,0.5 0.3,0.7 z m 6.6,-0.7 0.1,0.6 c 0.1,0.5 -0.3,1.1 -1.1,1.3 -0.6,0.1 -1.3,0 -1.6,-0.6 -0.1,-0.2 -0.2,-0.4 -0.2,-0.7 z"
   id="path102"
   inkscape:connector-curvature="0"
   style="clip-rule:evenodd;fill-rule:evenodd;fill:#000000;fill-opacity:1" />
		<path
   class="st0"
   d="m 224.1,148.2 c 0,0.2 -0.1,0.3 -0.1,0.5 0.7,0.4 1.2,0.8 1.9,1.2 l -0.6,2.4 c -0.7,0.1 -1.5,0.1 -2.3,0.2 -0.1,0.3 -0.1,0.6 -0.2,0.9 -0.1,0.3 -0.2,0.6 -0.3,0.9 l 7.7,-1.1 c 0,-0.1 0,-0.3 0.1,-0.4 0,-0.1 0.1,-0.3 0.1,-0.4 l -6.3,-4.7 c 0.1,0.2 0.1,0.3 0,0.5 z m 2.4,2.1 2.1,1.5 -2.6,0.3 z"
   id="path104"
   inkscape:connector-curvature="0"
   style="clip-rule:evenodd;fill-rule:evenodd;fill:#000000;fill-opacity:1" />
		<path
   class="st0"
   d="m 176.9,197.2 c -0.3,0 -0.5,0.1 -0.8,0.1 l 0.6,3.3 h -0.1 c -0.3,-0.4 -0.7,-0.8 -0.9,-1 l -1.6,-2 c -0.3,0.1 -0.6,0.2 -0.9,0.2 -0.3,0.1 -0.6,0.1 -0.9,0.1 l 0.5,0.6 c 0.8,0.8 1.6,1.7 2.3,2.6 -0.9,0.4 -1.5,1.1 -1.3,2.1 0.1,0.7 0.5,1.1 1.2,1.3 0.5,0.2 1.2,0 1.7,-0.1 l 2.2,-0.4 -1.2,-7.1 c -0.3,0.1 -0.6,0.2 -0.8,0.3 z m -1.4,6.1 c -0.1,-0.2 -0.1,-0.4 -0.1,-0.5 -0.2,-1.1 0.3,-1.7 1.4,-1.8 l 0.5,2.8 c -0.7,0.1 -1.5,0.3 -1.8,-0.5 z"
   id="path106"
   inkscape:connector-curvature="0"
   style="clip-rule:evenodd;fill-rule:evenodd;fill:#000000;fill-opacity:1" />
		<path
   class="st0"
   d="m 168.1,198.3 c -2.1,0.1 -3.7,1.6 -3.6,4 0.1,1.7 1.1,3.2 3.3,3.2 l 3.6,-0.2 -0.4,-7.1 z m 0.7,6.5 c -1.5,0.1 -2.4,-0.6 -2.5,-2.6 -0.1,-2.4 0.9,-3.2 2.4,-3.3 h 0.9 l 0.3,5.9 z"
   id="path108"
   inkscape:connector-curvature="0"
   style="clip-rule:evenodd;fill-rule:evenodd;fill:#000000;fill-opacity:1" />
		<path
   class="st0"
   d="m 150.5,197 c -0.4,0.7 -0.8,1.2 -1.2,1.9 l -2.4,-0.6 c -0.1,-0.8 -0.1,-1.5 -0.2,-2.3 -0.3,-0.1 -0.6,-0.1 -0.9,-0.2 -0.3,-0.1 -0.6,-0.2 -0.9,-0.3 l 1.1,7.8 c 0.1,0 0.3,0 0.4,0.1 0.1,0 0.3,0.1 0.4,0.1 l 4.6,-6.3 c -0.2,0 -0.3,-0.1 -0.5,-0.1 -0.1,0 -0.2,-0.1 -0.4,-0.1 z m -3.2,4.6 -0.3,-2.6 1.9,0.5 z"
   id="path110"
   inkscape:connector-curvature="0"
   style="clip-rule:evenodd;fill-rule:evenodd;fill:#000000;fill-opacity:1" />
		<path
   class="st0"
   d="m 133.5,190.3 c -1.8,-1.1 -4,-0.8 -5.2,1.3 -0.9,1.5 -0.9,3.3 1,4.5 l 3.1,1.8 3.7,-6.1 z m -2.2,6.3 -0.9,-0.5 c -1.3,-0.8 -1.7,-1.9 -0.6,-3.6 1.3,-2.1 2.6,-2.2 3.8,-1.4 l 0.8,0.5 z"
   id="path112"
   inkscape:connector-curvature="0"
   style="clip-rule:evenodd;fill-rule:evenodd;fill:#000000;fill-opacity:1" />
		<path
   class="st0"
   d="m 115.6,174.6 c -1.3,-1.7 -3.4,-2.1 -5.3,-0.7 -1.3,1.1 -2,2.7 -0.7,4.6 l 2.2,2.8 5.6,-4.4 z m -4.3,5 -0.6,-0.8 c -0.9,-1.2 -0.9,-2.4 0.7,-3.6 1.9,-1.5 3.2,-1.1 4.1,0.1 l 0.5,0.7 z"
   id="path114"
   inkscape:connector-curvature="0"
   style="clip-rule:evenodd;fill-rule:evenodd;fill:#000000;fill-opacity:1" />
		<path
   class="st0"
   d="m 104.3,150.5 c 0,-0.3 -0.1,-0.5 -0.1,-0.8 l -3.3,0.6 v -0.1 c 0.4,-0.3 0.8,-0.7 1,-0.9 l 1.9,-1.6 c -0.1,-0.3 -0.2,-0.6 -0.2,-0.9 -0.1,-0.3 -0.1,-0.6 -0.1,-0.9 l -0.6,0.5 c -0.8,0.8 -1.7,1.6 -2.6,2.3 -0.4,-0.9 -1.1,-1.5 -2.1,-1.3 -0.7,0.1 -1.1,0.5 -1.3,1.2 -0.2,0.5 0,1.2 0.1,1.7 l 0.4,2.2 7.1,-1.2 c -0.1,-0.3 -0.2,-0.5 -0.2,-0.8 z m -6.6,0.4 c -0.1,-0.6 -0.3,-1.4 0.5,-1.7 0.2,-0.1 0.4,-0.1 0.5,-0.1 1.1,-0.2 1.7,0.3 1.8,1.4 z"
   id="path116"
   inkscape:connector-curvature="0"
   style="clip-rule:evenodd;fill-rule:evenodd;fill:#000000;fill-opacity:1" />
		<path
   class="st0"
   d="m 103.3,145.4 c 0,-0.2 0,-0.3 -0.1,-0.5 0,-0.2 0,-0.3 0,-0.5 -0.7,-0.2 -1.4,-0.4 -2.2,-0.6 l -0.1,-2.4 c 0.7,-0.3 1.4,-0.6 2.1,-0.9 0,-0.3 -0.1,-0.6 -0.1,-0.9 0,-0.3 0,-0.6 0,-0.9 l -7.1,3.3 c 0,0.1 0,0.3 0.1,0.4 0,0.1 0,0.3 0,0.4 z m -3,-3.8 0.1,1.9 -2.5,-0.9 z"
   id="path118"
   inkscape:connector-curvature="0"
   style="clip-rule:evenodd;fill-rule:evenodd;fill:#000000;fill-opacity:1" />
		<path
   class="st0"
   d="m 102.9,134.1 c 0,-0.3 0.1,-0.5 0.1,-0.8 l -3.3,-0.2 V 133 c 0.4,-0.2 0.9,-0.5 1.2,-0.6 l 2.3,-1.1 c 0,-0.3 0,-0.6 0,-0.9 0,-0.3 0.1,-0.6 0.1,-0.9 l -0.7,0.4 c -1,0.6 -2,1.1 -3.1,1.6 -0.1,-1 -0.7,-1.7 -1.8,-1.8 -0.7,-0.1 -1.2,0.2 -1.6,0.8 -0.3,0.4 -0.3,1.2 -0.3,1.7 l -0.2,2.2 7.1,0.5 c 0.2,-0.2 0.2,-0.5 0.2,-0.8 z m -3.7,-1 -2.8,-0.2 c 0,-0.6 0,-1.4 0.9,-1.5 0.2,0 0.4,0 0.5,0 1.1,0 1.6,0.6 1.4,1.7 z"
   id="path120"
   inkscape:connector-curvature="0"
   style="clip-rule:evenodd;fill-rule:evenodd;fill:#000000;fill-opacity:1" />
		<path
   class="st0"
   d="m 108.6,111.1 c 0.1,-0.1 0.2,-0.3 0.3,-0.4 -0.6,-0.5 -1,-1 -1.6,-1.6 l 1.1,-2.2 c 0.8,0.1 1.5,0.2 2.3,0.3 0.1,-0.3 0.2,-0.6 0.4,-0.8 0.1,-0.3 0.3,-0.5 0.5,-0.8 l -7.8,-0.7 c 0,0.1 -0.1,0.2 -0.2,0.4 -0.1,0.1 -0.1,0.2 -0.2,0.3 l 5.1,6 c 0,-0.2 0.1,-0.4 0.1,-0.5 z m -3.5,-4.6 2.6,0.3 -0.9,1.7 z"
   id="path122"
   inkscape:connector-curvature="0"
   style="clip-rule:evenodd;fill-rule:evenodd;fill:#000000;fill-opacity:1" />
		<path
   class="st0"
   d="m 112.6,103.9 c 0.2,-0.2 0.3,-0.4 0.5,-0.6 l -2.7,-2 v -0.1 c 0.5,0.1 1,0.1 1.3,0.2 l 2.5,0.3 c 0.2,-0.3 0.3,-0.5 0.5,-0.8 0.2,-0.3 0.4,-0.5 0.6,-0.7 l -0.8,-0.1 c -1.2,-0.1 -2.3,-0.1 -3.5,-0.3 0.4,-0.9 0.3,-1.8 -0.5,-2.4 -0.6,-0.4 -1.1,-0.5 -1.7,-0.2 -0.4,0.2 -0.9,0.8 -1.2,1.2 l -1.3,1.8 5.7,4.3 c 0.3,-0.2 0.4,-0.4 0.6,-0.6 z m -4.8,-4.6 c 0.4,-0.5 0.8,-1.2 1.6,-0.8 0.2,0.1 0.3,0.2 0.4,0.3 0.9,0.6 0.9,1.4 0.2,2.2 z"
   id="path124"
   inkscape:connector-curvature="0"
   style="clip-rule:evenodd;fill-rule:evenodd;fill:#000000;fill-opacity:1" />
		<path
   class="st0"
   d="m 115.6,99.5 c 0.1,-0.1 0.2,-0.2 0.4,-0.3 -0.4,-0.6 -0.7,-1.3 -1.1,-2 l 1.6,-1.8 c 0.7,0.3 1.4,0.6 2.1,0.9 0.2,-0.2 0.4,-0.5 0.6,-0.7 0.2,-0.2 0.4,-0.4 0.6,-0.6 l -7.3,-2.7 c -0.1,0.1 -0.2,0.2 -0.2,0.3 -0.1,0.1 -0.2,0.2 -0.3,0.3 l 3.4,7.1 c 0,-0.2 0.1,-0.4 0.2,-0.5 z m -2.2,-5.3 2.4,0.9 -1.3,1.4 z"
   id="path126"
   inkscape:connector-curvature="0"
   style="clip-rule:evenodd;fill-rule:evenodd;fill:#000000;fill-opacity:1" />
		<path
   class="st0"
   d="m 129.1,87.1 c 2.1,-1.5 2.4,-3.8 1.2,-5.5 -0.9,-1.3 -2.9,-2.5 -5.3,-0.8 -2.1,1.5 -2.4,3.8 -1.2,5.5 1.3,1.9 3.4,2.1 5.3,0.8 z m -3.8,-5.7 c 1.3,-0.9 2.7,0 3.5,1.1 1,1.4 1.3,3.2 0,4.1 -1.3,0.9 -2.6,0.1 -3.4,-1 -1.4,-2 -1.3,-3.4 -0.1,-4.2 z"
   id="path128"
   inkscape:connector-curvature="0"
   style="clip-rule:evenodd;fill-rule:evenodd;fill:#000000;fill-opacity:1" />
		<path
   class="st0"
   d="m 223.4,137.1 c 0,-32.9 -26.6,-59.6 -59.4,-59.6 -32.8,0 -59.4,26.7 -59.4,59.6 0,32.9 26.6,59.6 59.4,59.6 32.8,0.1 59.4,-26.6 59.4,-59.6 z M 164,195.3 c -32,0 -57.9,-26 -57.9,-58.1 C 106.1,105 132,79 164,79 c 32,0 57.9,26 57.9,58.1 0,32.1 -25.9,58.2 -57.9,58.2 z"
   id="path130"
   inkscape:connector-curvature="0"
   style="clip-rule:evenodd;fill-rule:evenodd;fill:#000000;fill-opacity:1" />
		<path
   class="st0"
   d="m 169.9,97.7 c 2.5,-0.6 4.5,-1.7 5.4,-3.1 0,-0.1 0.1,-0.1 0.1,-0.2 l 0.5,-0.3 c 0.3,-0.2 0.4,-0.6 0.2,-0.9 l -0.3,-0.4 c 0,0 0,-0.1 0,-0.1 l 0.1,-1 c 1.5,-2 3.7,-3.5 5.8,-5 l -0.3,-0.6 c 0,0 -1,0.4 -1.8,0.6 -0.4,0.1 -0.8,0.2 -1.2,0.2 -0.1,-0.5 -0.3,-1.1 -0.7,-1.4 -1.3,-0.8 -3.2,-0.3 -2.9,1.4 l 0.1,0.3 c 0,0 0.4,-0.1 0.6,-0.1 0.1,0 0.2,0 0.4,0 0.4,0.3 -0.5,1.8 -1.4,1.7 -1.2,-0.1 -2.1,-1 -2.4,-2 0.5,-0.3 0.9,-0.9 0.9,-1.6 0,-1.1 -0.9,-1.9 -1.9,-1.9 -1.1,0 -1.9,0.9 -1.9,1.9 0,0.6 0.2,1.1 0.6,1.4 0,0 -0.1,0.1 -0.1,0.2 -0.3,0.6 -0.9,1.3 -1.7,1.4 -2.1,0.1 -2,-3.1 0,-3 0.3,0 0.8,0.3 0.8,0.3 l -0.1,-0.6 c 0,0 0,-0.1 -0.1,-0.4 -0.3,-1 -1.1,-1.8 -2.3,-1.9 0,0 -0.5,-1.9 -1.4,-2.9 -0.6,0.7 -1.4,2.9 -1.4,2.9 -1.2,0 -2,0.8 -2.3,1.9 -0.1,0.2 -0.1,0.4 -0.1,0.4 l -0.1,0.6 c 0,0 0.5,-0.3 0.8,-0.3 2,-0.1 2.1,3 0,3 -0.8,0 -1.4,-0.7 -1.7,-1.4 0,-0.1 -0.1,-0.2 -0.1,-0.2 0.4,-0.3 0.6,-0.9 0.6,-1.4 0,-1.1 -0.9,-1.9 -1.9,-1.9 -1.1,0 -1.9,0.9 -1.9,1.9 0,0.7 0.3,1.3 0.9,1.6 -0.3,1.1 -1.2,2 -2.4,2 -0.9,0.1 -1.8,-1.4 -1.4,-1.7 0.1,0 0.2,0 0.4,0 0.2,0 0.6,0.1 0.6,0.1 l 0.1,-0.4 c 0.4,-1.7 -1.6,-2.2 -2.9,-1.4 -0.5,0.3 -0.7,0.8 -0.7,1.4 -0.4,0 -0.8,-0.1 -1.2,-0.2 -0.7,-0.2 -1.8,-0.6 -1.8,-0.6 l -0.3,0.6 c 2.1,1.5 4.3,2.9 5.8,5 l 0.1,0.9 c 0,0 -0.1,0.1 -0.1,0.2 l -0.3,0.6 c -0.2,0.3 0,0.7 0.3,0.9 l 0.6,0.3 c 0,0.1 0,0.1 0.1,0.2 1,1.3 2.9,2.4 5.4,3 l -17.2,17.2 22.2,22.3 22.2,-22.3 z m -21.3,21.8 -4.6,-4.6 4.6,-4.6 z m 9.1,9.2 -4.4,-4.4 v -18.7 l 4.4,-4.4 z m 16.5,-35.9 c -0.3,0.2 -0.4,0.6 -0.2,0.9 -1.2,-0.5 -2.5,-0.9 -3.9,-1.2 l 0.5,-0.3 c 0.3,-0.2 0.4,-0.6 0.2,-0.9 l -0.1,-0.2 c 1.5,0.3 2.8,0.8 3.9,1.3 z m -19.8,-1.3 -0.1,-0.2 c -1.2,-1.6 -3,-2.9 -4.6,-4.1 0.4,0.1 0.8,0.2 1.4,0.3 0.5,0.1 0.6,0 0.8,0 0,-0.1 0,-0.2 0,-0.3 0,-0.1 0.1,-0.9 0.5,-1.1 0.6,-0.3 1.9,-0.5 1.9,0.5 h -0.1 c -0.1,0 -0.2,0 -0.3,0 -1.5,0.3 -0.3,3.1 1.5,3 1.3,-0.1 2.2,-0.9 2.8,-2.1 0.2,-0.4 0.3,-1 0.3,-1 -0.5,-0.2 -0.9,-0.6 -0.9,-1.2 0,-0.7 0.6,-1.3 1.3,-1.3 0.7,0 1.3,0.6 1.3,1.3 0,0.5 -0.2,0.9 -0.6,1.1 l -0.2,0.1 c 0,0 0.1,0.3 0.2,0.4 0.4,1 1.3,2 2.4,2 2.9,0.1 2.8,-4.2 0.1,-4.3 0.2,-0.5 0.7,-1.4 1.8,-1.3 h 0.2 c 0,0 0.5,-1.9 1,-2.5 0.5,0.9 0.9,2.5 0.9,2.5 h 0.2 c 1.2,-0.1 1.6,0.8 1.8,1.3 -2.7,0.1 -2.8,4.4 0.1,4.3 1.1,0 2,-1 2.4,-2 0,-0.1 0.2,-0.4 0.2,-0.4 l -0.2,-0.1 c -0.4,-0.2 -0.6,-0.6 -0.6,-1.1 0,-0.7 0.6,-1.3 1.3,-1.3 0.7,0 1.3,0.6 1.3,1.3 0,0.6 -0.4,1.1 -0.9,1.2 0,0 0.1,0.6 0.3,1 0.5,1.2 1.4,2 2.8,2.1 1.8,0.1 3,-2.7 1.5,-3 -0.1,0 -0.2,0 -0.3,0 h -0.1 c 0,-1 1.4,-0.9 1.9,-0.5 0.4,0.2 0.5,1.1 0.5,1.1 v 0.3 c 0.1,0 0.2,0 0.2,0 0,0 0.3,0 0.6,0 0.3,0 0.7,0 1.1,-0.2 -1.6,1.2 -3.2,2.4 -4.4,4 l -0.1,0.2 -0.1,0.5 c -2.7,-1.3 -6.3,-2.1 -10.4,-2.1 -4,0 -7.7,0.8 -10.4,2.1 z m 11.2,-0.9 -0.1,-0.1 c 1.3,0 2.6,0.1 3.8,0.3 l -0.1,0.1 c -0.3,0.2 -0.4,0.6 -0.2,0.9 l 0.3,0.6 C 168.1,92.2 166.8,92 165.4,92 l 0.4,-0.4 c 0.1,-0.4 0.1,-0.8 -0.2,-1 z m -4.9,0.3 -0.2,-0.1 c 1.1,-0.2 2.2,-0.3 3.4,-0.3 l -0.2,0.3 c -0.2,0.3 -0.2,0.7 0.1,0.9 l 0.3,0.3 c -1.2,0 -2.4,0.2 -3.5,0.4 l 0.3,-0.5 c 0.2,-0.4 0.1,-0.8 -0.2,-1 z m -5.9,1.6 c 1.2,-0.6 2.7,-1.1 4.3,-1.5 l -0.2,0.3 c -0.2,0.3 -0.1,0.7 0.2,0.9 l 0.4,0.3 c -1.5,0.3 -2.9,0.8 -4.2,1.4 l 0.1,-0.2 c 0.2,-0.3 0,-0.7 -0.3,-0.9 z m 5.5,4.6 c -2.3,-0.5 -4.1,-1.4 -5.1,-2.5 0.2,-0.1 0.4,-0.2 0.6,-0.3 1.3,0.9 3.1,1.6 5.3,2 z m 7,36.4 -2.4,2.4 -2.4,-2.4 V 96.4 l 2.4,-2.4 2.4,2.4 z m -2.4,-40.9 -3.2,3.2 c -2.1,-0.3 -3.8,-0.9 -5.1,-1.7 2.3,-0.9 5.2,-1.5 8.3,-1.5 3.2,0 6.1,0.6 8.4,1.5 -1.3,0.8 -3.1,1.4 -5.2,1.7 z m 3.7,3.8 c 2.2,-0.4 4,-1.1 5.4,-2 0.2,0.1 0.3,0.2 0.5,0.2 -1,1.1 -2.8,2 -5.1,2.5 z m 7.8,27.9 -4.4,4.4 v -27.6 l 4.4,4.4 z m 4.7,-14 4.6,4.6 -4.6,4.6 z"
   id="path132"
   inkscape:connector-curvature="0"
   style="clip-rule:evenodd;fill-rule:evenodd;fill:#000000;fill-opacity:1" />
		<rect
   x="190.8"
   y="152.2"
   class="st0"
   width="0.30000001"
   height="1.4"
   id="rect134"
   style="clip-rule:evenodd;fill-rule:evenodd;fill:#000000;fill-opacity:1" />
		<rect
   x="187.3"
   y="152.2"
   class="st0"
   width="0.30000001"
   height="1.4"
   id="rect136"
   style="clip-rule:evenodd;fill-rule:evenodd;fill:#000000;fill-opacity:1" />
		<rect
   x="189"
   y="149.7"
   class="st0"
   width="0.40000001"
   height="2"
   id="rect138"
   style="clip-rule:evenodd;fill-rule:evenodd;fill:#000000;fill-opacity:1" />
		<rect
   x="183.10001"
   y="142.8"
   class="st0"
   width="0.30000001"
   height="1.4"
   id="rect140"
   style="clip-rule:evenodd;fill-rule:evenodd;fill:#000000;fill-opacity:1" />
		<rect
   x="179.60001"
   y="142.8"
   class="st0"
   width="0.30000001"
   height="1.4"
   id="rect142"
   style="clip-rule:evenodd;fill-rule:evenodd;fill:#000000;fill-opacity:1" />
		<path
   class="st0"
   d="m 210.8,129.1 -0.7,-0.1 c -2,-0.2 -5.4,-0.7 -5.4,2.4 1.5,-0.5 2.1,1.1 0.3,1.1 -0.8,0 -0.9,-1.2 -0.9,-1.8 0.7,-0.6 0.9,-2 -0.5,-2 -0.3,0 -0.7,0.3 -1,0.5 -0.1,-0.5 -0.4,-0.8 -0.9,-1.1 0,-0.8 -0.1,-1.6 -0.7,-2.1 -0.7,0.3 -1.2,1 -1.4,1.8 -0.8,0.1 -1.4,0.4 -1.4,1.4 v 0.3 h 0.3 c 2.6,0 0.1,3.8 -0.8,-0.1 1.6,-0.8 -0.4,-3.1 -1.3,-1.8 -0.5,0.7 -0.3,1.3 0.3,1.7 -0.1,2.3 -3.1,1.7 -3.1,0.3 0,-2.1 1.1,-0.3 1.5,0.4 l 0.2,-0.4 c 0.6,-1.1 0.9,-4.1 -1.3,-3.2 0,-0.7 -0.4,-2.1 -1.2,-2.5 -0.8,0.5 -1,1.5 -1.1,2.3 -1,-0.5 -1.8,0.4 -1.6,1.4 l 0.1,0.4 c 0.1,0.9 0.3,1.6 0.5,2.5 l 0.3,-0.8 c 0.3,-0.9 1.1,-1.6 1.2,0 0,0.6 -2.1,2.6 -3,-0.4 1.5,-0.8 -0.5,-3.2 -1.6,-1.5 -0.2,0.3 -0.2,0.6 -0.1,0.9 -0.2,-0.5 -0.8,-0.9 -1.4,-0.9 -0.1,-0.7 -0.6,-1.6 -1.4,-1.8 -0.7,0.4 -0.7,1.4 -0.7,2.1 l -0.7,0.4 c -0.2,0.3 -0.3,0.6 -0.3,0.8 -0.1,-0.4 -0.5,-0.7 -1,-0.7 -1.3,0 -1.5,1.8 -0.4,2.1 0,0.5 -0.1,1 -0.4,1.4 -0.6,1.2 -2.8,-1.2 -1,-1 0.2,0 0.2,0.1 0.3,0.2 0.2,0.3 0.8,0.4 0.6,-0.2 0,-0.1 -0.1,-0.2 -0.1,-0.3 l -0.1,-0.2 -0.1,-0.3 c -0.8,-2.1 -3.5,-1.6 -5.2,-1.4 v 0 0 l -0.2,0.4 c 1.8,1.1 3.3,2.8 3.2,5.1 h -0.1 c -0.4,0.1 -0.3,0.7 0,0.8 0,0 -0.1,0.1 -0.1,0.1 l -0.5,0.5 c -0.3,0.3 -0.3,0.7 0,1 l 0.5,0.5 c 0.1,0.1 0.2,0.2 0.3,0.2 l -0.5,0.2 h -0.6 c 0,0 0,15.8 0,25.5 0,4.5 0.5,6 2.9,8.9 2.7,3.1 6.9,5.4 8,5.9 1,0.5 3.2,1.5 4.4,1.5 2.7,0 8.2,-3.8 10.1,-5.5 1.7,-1.5 3.3,-3.5 4.2,-5.2 v -0.1 c 0.2,-0.5 0.4,-0.9 0.6,-1.5 0.1,-0.3 0.2,-0.7 0.2,-1 v 0 -28.6 h -0.4 l -0.4,-0.2 c 0.1,0 0.2,-0.1 0.3,-0.2 l 0.5,-0.5 c 0.3,-0.3 0.3,-0.7 0,-1 l -0.5,-0.5 c 0,0 -0.1,-0.1 -0.2,-0.1 0.3,-0.1 0.4,-0.6 0,-0.8 -0.7,-1.8 2.1,-4.1 3.5,-5.2 z m -8.5,1.1 c 0.3,0.1 0.6,0.3 0.6,0.6 0.1,0.4 -0.6,0.9 -1.1,0.9 -0.5,0 -1.9,-1.5 0.1,-1.7 v 0 h 0.2 z m -5.5,-2.2 c 0.4,-0.6 1.7,0.7 0.4,1.1 -0.5,-0.2 -0.8,-0.5 -0.4,-1.1 z m -8.8,0.2 c 0.6,-0.9 1.8,0.4 0.6,0.9 -0.4,-0.1 -0.9,-0.4 -0.6,-0.9 z m -0.7,1.4 h 0.3 v -0.3 c 0,-0.2 0,-0.3 -0.1,-0.4 0.1,0.2 0.3,0.4 0.5,0.5 0,2.2 -1.1,2 -1.6,1.5 -0.6,-0.4 -0.8,-1.3 0.9,-1.3 z m -4.4,0.9 c 0.6,-0.4 1.8,-0.9 1.8,0.4 0,1.2 -1.7,1.1 -1.9,-0.2 0,-0.1 0.1,-0.2 0.1,-0.2 z m -4.2,36.7 c -0.3,-1.2 -0.4,-2.5 -0.4,-3.9 v -6.1 h 0.4 z m 1.6,3.5 c -0.3,-0.4 -0.6,-0.8 -0.8,-1.2 v -12.4 h 0.8 z m 1.7,1.9 c -0.3,-0.3 -0.5,-0.5 -0.8,-0.8 v -14.7 h 0.8 z m 1.7,1.5 c -0.3,-0.2 -0.5,-0.4 -0.8,-0.7 v -16.3 h 0.8 z m 1.5,1.2 c -0.2,-0.2 -0.5,-0.3 -0.7,-0.5 v -17.7 h 0.6 v 0.1 18.1 z m 0.1,-18.5 h -7 v -9.2 h 7 v -0.2 0 -8.6 h 7.4 v 8.9 h -7.4 z m 6.1,-21.8 0.5,0.5 c 0,0 0,0 0.1,0.1 -1.8,0 -3.7,0.2 -5.5,0.4 l 0.5,-0.5 c 0.3,-0.3 0.3,-0.7 0,-1 l -0.5,-0.5 c -0.1,-0.1 -0.2,-0.2 -0.4,-0.2 2.1,-0.3 4.2,-0.5 6.2,-0.5 -0.1,0 -0.2,0.1 -0.3,0.2 l -0.5,0.5 c -0.4,0.3 -0.4,0.8 -0.1,1 z m 1,1.4 c 2.4,0 5.4,0 7.4,0.4 1.6,0.3 3.5,0.6 5.2,1.1 h -23.9 c 3.7,-0.9 7.6,-1.5 11.3,-1.5 z m 6.8,-0.9 0.4,0.4 c -1.9,-0.3 -4.5,-0.3 -6.7,-0.3 0,0 0,0 0.1,-0.1 l 0.5,-0.5 c 0.3,-0.3 0.3,-0.7 0,-1 l -0.5,-0.5 c -0.1,-0.1 -0.2,-0.2 -0.4,-0.2 0.2,0 0.5,0 0.7,0 2.5,0 4.8,0.2 6.9,0.5 -0.2,0 -0.3,0.1 -0.4,0.2 l -0.5,0.5 c -0.4,0.3 -0.4,0.7 -0.1,1 z m 4.6,12.2 3.2,-8 v 16 z m 3.2,8.6 v 0.5 h -0.4 v -1.5 z m -1.2,-3 v 3.5 H 205 v -5.6 z m -5.6,2.9 v -17.1 l 3.4,8.5 z m 2.4,-5.4 v 6 h -0.9 v -3.9 z m -1.7,4.1 v 1.9 h -0.7 z m -0.6,-16.1 h 0.7 v 1.7 z m 1.4,3.6 v -3.7 h 0.9 v 5.8 z m 1.7,4.2 v -7.9 h 0.7 v 7.5 l -0.4,1.1 z m 0,2.1 0.3,-0.7 0.4,1.1 v 7.7 h -0.7 z m 1.6,-4.5 v -5.4 h 0.9 v 3.3 z m 1.6,-4.2 v -1.3 h 0.4 v 0.3 z m -0.2,-4.4 -0.5,0.5 c -0.3,0.3 -0.3,0.7 0,1 l 0.4,0.4 c -1.8,-0.6 -3.9,-1.1 -5.7,-1.4 0,0 0.1,0 0.1,-0.1 l 0.5,-0.5 c 0.3,-0.3 0.3,-0.7 0,-1 l -0.5,-0.5 c -0.1,-0.1 -0.1,-0.1 -0.2,-0.2 2.4,0.4 4.5,0.9 6.4,1.5 -0.3,0.1 -0.4,0.2 -0.5,0.3 z m -10,26.4 c -0.3,0 -0.6,0.3 -0.6,0.3 v 3.4 h -2.3 v -0.9 h 0.6 v -5.4 h 0.9 v 1.3 h 0.4 v -2.8 h 1.8 v 2.8 h 0.5 v -1.3 h 0.9 v 5.4 h 0.6 v 0.9 h -2.3 v -3.4 c -0.1,-0.1 -0.2,-0.3 -0.5,-0.3 z m -2,-5.2 v -18 h 0.8 v 18 z m 1.7,0 v -18 h 0.8 v 18 z m 1.6,0 v -18 h 0.8 v 18 z m -4.2,-18 v 18 h -0.6 v -18 z m -8.5,-3.2 0.5,0.5 c 0,0 0.1,0.1 0.1,0.1 -2.2,0.3 -4.3,0.8 -6.3,1.4 l 0.5,-0.5 c 0.3,-0.3 0.3,-0.7 0,-1 l -0.5,-0.5 c -0.1,-0.1 -0.2,-0.2 -0.3,-0.2 2,-0.6 4.4,-1.1 6.7,-1.5 -0.1,0 -0.1,0.1 -0.2,0.1 l -0.5,0.5 c -0.3,0.3 -0.3,0.8 0,1.1 z m -5.7,10.5 v -5.4 h 0.9 v 1.3 h 0.4 v -2.8 h 1.8 v 2.8 h 0.5 v -1.3 h 0.9 v 5.4 h 0.6 V 147 H 182 v -3.4 c 0,0 -0.1,-0.3 -0.4,-0.3 -0.3,0 -0.6,0.3 -0.6,0.3 v 3.4 h -2.3 v -0.9 z m 9.9,20.5 3.4,-8.6 v 8.6 c -0.1,1.4 -0.7,2.9 -1.7,4.2 z m 1.5,4.4 c -0.1,0.2 -0.3,0.4 -0.4,0.5 V 170 Z m -4.3,-14.7 v -0.9 H 187 V 150 h 0.9 v 1.3 h 0.4 v -2.8 h 1.8 v 2.8 h 0.5 V 150 h 0.9 v 5.4 h 0.6 v 0.9 h -2.3 v -3.4 c 0,0 -0.1,-0.3 -0.4,-0.3 -0.3,0 -0.6,0.3 -0.6,0.3 v 3.4 z m 1.4,0.9 v 6.1 l -0.8,-2.1 c 0,-0.7 0,-3.5 0,-4 z m 4.7,0 v 0.6 l -0.5,1.3 c 0,-0.5 0,-1.6 0,-1.9 z m -1.4,0 v 4 l -0.8,2 c 0,-1 0,-5.4 0,-6 z m -2.4,0 h 0.8 v 8 l -0.4,1 -0.4,-1 z m 0.7,10.6 v 4.8 c -0.2,0.3 -0.5,0.5 -0.8,0.8 v -5.5 l 0.4,-1 z m -3.2,-10.6 v 1.9 l -0.7,-1.8 v -0.1 z m -0.8,0.6 3.5,8.7 -3.5,8.6 z m 2.4,12.1 v 4.2 c -0.3,0.2 -0.5,0.4 -0.8,0.6 v -2.8 z m -2.3,5.7 0.6,-1.6 v 1.3 c -0.2,0.1 -0.3,0.2 -0.5,0.3 z m 7.3,3.3 c -0.9,0 -3,-0.9 -4.1,-1.4 -0.5,-0.2 -1.5,-0.8 -2.8,-1.7 2.8,-1.7 6.2,-5.2 6.9,-8.4 0.5,2.3 2.5,5 4.6,6.9 0.1,0.1 0.2,0.3 0.3,0.3 0.5,0.5 1.1,0.9 1.6,1.2 -2.2,1.5 -5,3.1 -6.5,3.1 z m 7.1,-3.5 -0.4,0.3 c -0.5,-0.3 -1,-0.7 -1.5,-1.1 0.1,0 0.2,-0.1 0.3,-0.2 0.5,-0.4 0.1,-0.7 0.1,-1.6 0,-0.8 0.3,-2.5 0.4,-2.9 0.2,0 0.4,-0.2 0.4,-0.4 0,-0.2 -0.1,-0.4 -0.1,-0.9 0,-0.5 0.1,-0.5 0.1,-0.5 0,0 -0.9,0 -1.1,1.7 -0.2,1.7 -0.8,1.2 -0.7,0.2 0.1,-0.9 0.8,-2.5 0.5,-2.8 -0.3,-0.3 -0.9,0.2 -1.2,-0.2 0,0.6 -0.2,0.6 -0.4,0.7 -0.2,0.1 -0.6,0.2 -0.6,0.5 0,0.3 0.1,0.1 0.1,0.3 0,0.2 -0.2,0.2 -0.2,0.4 0,0.2 0.3,0.5 0.3,0.7 0,0.2 -0.3,0.2 -0.6,-0.3 -0.3,-0.5 -0.9,-1.5 -1.1,-1.2 -0.2,0.2 0.1,0.6 0.2,0.8 0.1,0.2 0.4,1 -0.1,1.3 -0.8,-1.2 -1.3,-2.5 -1.4,-3.7 h 7.1 v 8.9 z m 0,-18.6 h -0.5 v -18 h 0.5 z m 5.8,12.8 c -0.5,0.7 -1.1,1.5 -1.7,2.2 v -0.4 c 0,0 -0.1,-0.3 -0.4,-0.3 -0.3,0 -0.6,0.3 -0.6,0.3 v 1.5 c -0.2,0.2 -0.5,0.5 -0.7,0.7 -0.4,0.3 -0.9,0.7 -1.5,1.2 h -0.1 v -0.9 h 0.6 v -5.4 h 0.9 v 1.3 h 0.4 V 167 h 1.8 v 2.8 h 0.5 v -1.3 h 0.9 v 1.1 z m 1.4,-3.1 H 200 v -0.4 -0.3 0.3 -9 h 7.1 z m -0.4,-32 c -3.6,-1.2 -7.9,-2 -13.4,-2 -4.7,0 -10,0.8 -14.2,2 0.1,-2.1 -1.2,-3.8 -2.8,-4.9 1.5,-0.2 3.5,-0.4 4.1,1.2 0,0 -0.1,0 -0.1,0 -2.8,-0.3 0.2,4.3 1.5,1.8 0.3,-0.6 0.4,-1.3 0.4,-2 -0.9,-0.1 -1,-1.2 -0.2,-1.2 0.7,0 0.6,0.9 0.2,1.2 0.2,2.3 3,2.2 3,0.4 0,-1.3 -1,-1.5 -1.8,-1.2 0.1,-0.2 0.2,-0.4 0.3,-0.6 l 0.8,-0.4 c 0,-0.5 0,-1.5 0.3,-1.9 0.6,0.3 0.8,1.2 0.8,1.8 0.6,-0.1 1.2,0 1.4,0.7 -2,0.1 -1.8,1.6 -0.9,2.3 1,0.8 2.4,0.6 2.4,-2.1 1.2,4.2 4.2,1.6 4.1,0.5 -0.1,-1.4 -1.1,-2.1 -1.9,-0.9 l -0.1,-0.8 c 0,-0.3 -0.1,-0.7 -0.1,-0.7 0.1,-0.4 0.5,-0.9 1.2,-0.3 l 0.4,0.3 c 0,-0.8 0.1,-2.2 0.7,-2.7 0.5,0.6 0.7,1.9 0.6,2.6 l 0.4,-0.1 c 1.8,-1 1.5,1 1.2,2 -0.9,-1.2 -2,-1.1 -2,0.7 0,2.1 3.9,2.7 4.1,-0.2 1.3,5.1 4.9,-0.2 1.6,-0.5 0.1,-0.5 0.5,-0.7 1.1,-0.7 h 0.3 v -0.3 c 0,-0.5 0.3,-1.2 0.8,-1.5 0.4,0.4 0.3,1.3 0.3,1.8 0.5,0.2 0.9,0.3 1,1 h -0.1 c -2.2,0.2 -2.3,2.7 -0.3,2.7 1.3,0 2.4,-1.7 1,-2.4 0.2,-0.1 0.7,-0.5 0.9,-0.5 0.9,0 0.3,0.9 -0.1,1.2 v 0.1 c 0,0.9 0.2,2.4 1.4,2.4 2.3,0 1.8,-2.4 0.2,-2.2 0.2,-1.6 3,-1.4 4.1,-1.3 -1.2,0.8 -3,2.7 -2.6,4.7 z"
   id="path144"
   inkscape:connector-curvature="0"
   style="clip-rule:evenodd;fill-rule:evenodd;fill:#000000;fill-opacity:1" />
		<rect
   x="181.3"
   y="140.3"
   class="st0"
   width="0.40000001"
   height="2"
   id="rect146"
   style="clip-rule:evenodd;fill-rule:evenodd;fill:#000000;fill-opacity:1" />
		<rect
   x="197.89999"
   y="161.5"
   class="st0"
   width="0.30000001"
   height="1.4"
   id="rect148"
   style="clip-rule:evenodd;fill-rule:evenodd;fill:#000000;fill-opacity:1" />
		<rect
   x="194.39999"
   y="161.5"
   class="st0"
   width="0.30000001"
   height="1.4"
   id="rect150"
   style="clip-rule:evenodd;fill-rule:evenodd;fill:#000000;fill-opacity:1" />
		<rect
   x="196.10001"
   y="158.89999"
   class="st0"
   width="0.40000001"
   height="2"
   id="rect152"
   style="clip-rule:evenodd;fill-rule:evenodd;fill:#000000;fill-opacity:1" />
		<path
   class="st0"
   d="m 145.4,137.4 c 0.3,-0.7 0.9,-1.1 1.6,-1.4 -0.3,-0.5 -0.5,-0.9 -1.1,-1.1 -0.1,0 -0.2,0 -0.3,0 0.4,-0.9 0.2,-1.8 0.2,-2.7 0.3,0.1 0.5,-0.4 0.2,-0.5 0,0 -0.1,0 -0.2,-0.1 v -0.1 c 0,-0.4 0,-0.8 0,-0.8 0,-0.2 0.4,-0.8 0.5,-0.9 0.3,-0.3 1.2,-0.9 1.6,-1.1 l -0.3,-0.3 c 0,0 -0.1,0 -0.3,-0.1 -0.8,-0.4 -1.5,-0.6 -2.2,0 v 0 c -0.1,-0.2 -0.3,-0.3 -0.4,-0.4 h 0.1 c -0.3,-1 -0.8,-2.1 -1.6,-2.8 0,-0.4 -0.1,-1.5 -0.1,-1.6 0.2,-0.4 0.8,-0.8 1.2,-1 0.2,-0.1 0.5,-0.2 0.5,-0.2 -0.1,-0.6 -0.4,-1.1 -1.2,-1.1 -0.4,0 -0.7,0.2 -1,0.3 -0.5,-1.3 -1.1,-1 -1.9,-0.6 0,-0.4 -0.2,-0.7 -0.6,-0.8 0,0 0,-0.1 0,-0.1 -0.5,-1.1 -1.5,-1.9 -2.7,-2.2 0.1,-0.2 0.2,-0.3 0.2,-0.5 0,-0.4 -0.3,-0.8 -0.7,-0.9 v -0.5 h 0.8 c 0.4,0 0.4,-0.6 0,-0.6 h -0.8 v -1 c 0,-0.4 -0.6,-0.4 -0.6,0 v 1 h -0.8 c -0.4,0 -0.4,0.6 0,0.6 h 0.8 v 0.5 c -0.4,0.1 -0.7,0.5 -0.7,0.9 0,0.2 0.1,0.4 0.2,0.5 -1.2,0.3 -2.2,1.1 -2.7,2.3 -0.4,0.1 -0.6,0.4 -0.6,0.9 -0.8,-0.4 -1.3,-0.7 -1.8,0.6 -0.2,-0.2 -0.5,-0.3 -1,-0.3 -0.5,0 -0.9,0.2 -1.1,0.7 0,0.1 -0.1,0.4 -0.1,0.4 0.6,0.2 1.4,0.5 1.7,1.2 0,0.1 -0.1,1.3 -0.1,1.6 -0.7,0.7 -1.3,1.8 -1.6,2.8 -0.1,0.1 -0.2,0.2 -0.3,0.3 v 0 c -0.7,-0.7 -1.4,-0.4 -2.2,0 -0.2,0.1 -0.3,0.1 -0.3,0.1 l -0.3,0.3 c 0.4,0.2 1.3,0.8 1.6,1.1 0.1,0.1 0.5,0.7 0.5,0.9 0,0 0,0.4 0,0.8 v 0.1 c -0.1,0 -0.2,0.1 -0.2,0.1 -0.3,0.1 -0.2,0.6 0.2,0.5 -0.1,1 -0.2,1.9 0.2,2.8 -0.1,0 -0.3,0 -0.4,0 -0.6,0.2 -0.9,0.6 -1.1,1.1 0.7,0.3 1.3,0.7 1.6,1.4 0.2,0.3 0.5,1.2 0.6,1.4 h -7.6 v 25.9 c 0,1.2 0.1,2.6 0.4,3.8 1.5,5.2 6.6,8.7 11.2,10.8 1.8,0.8 3.2,1.2 3.2,1.2 l 0.5,0.1 0.5,-0.1 c 3.1,-0.9 6.9,-2.9 9.3,-5 3.1,-2.7 5.1,-5.4 5.3,-9.4 0.1,-0.8 0.1,-1.4 0.1,-1.4 V 138.9 H 145 c -0.1,-0.4 0.3,-1.2 0.4,-1.5 z m -21.7,30.3 h -1.9 l -0.1,-0.4 c 0.2,-0.2 0.4,-0.5 0.4,-0.5 0,0 -0.4,-0.4 -0.4,-0.5 -0.1,-0.1 -0.1,-0.3 -0.1,-0.4 0,-0.1 0,-0.5 0.9,-0.5 1,0 1,0.3 1,0.5 0,0.4 -0.5,0.9 -0.5,0.9 l 0.6,0.8 v 0.1 z m 0,-11 h -2.2 c 0,0 0,-0.1 0,-0.1 0,-0.1 0.7,-0.8 0.7,-0.8 0,0 -0.4,-0.4 -0.4,-0.5 -0.1,-0.1 -0.1,-0.3 -0.1,-0.4 0,-0.1 0,-0.5 0.9,-0.5 1,0 1,0.3 1,0.5 0,0.4 -0.5,0.9 -0.5,0.9 l 0.6,0.8 z m 0.1,-14.5 h -2.2 c 0,0 0,-0.1 0,-0.1 0,-0.1 0.7,-0.8 0.7,-0.8 0,0 -0.4,-0.4 -0.4,-0.5 -0.1,-0.1 -0.1,-0.3 -0.1,-0.4 0,-0.1 0,-0.5 0.9,-0.5 1,0 1,0.3 1,0.5 0,0.4 -0.5,0.9 -0.5,0.9 l 0.6,0.8 z m 16.5,-20.6 h 0.6 c 0.3,0 0.5,0.3 0.5,0.6 0,0.7 -1,0.4 -1.2,-0.6 0,0 0.1,0 0.1,0 z m -0.5,-1.1 c 0.2,0 0.4,0.2 0.4,0.4 0,0.2 -0.2,0.4 -0.4,0.4 -0.2,0 -0.4,-0.2 -0.4,-0.4 0,-0.2 0.2,-0.4 0.4,-0.4 z m -3.3,-3.7 c 0.2,0 0.4,0.2 0.4,0.4 0,0.2 -0.2,0.4 -0.4,0.4 -0.2,0 -0.4,-0.2 -0.4,-0.4 0.1,-0.2 0.2,-0.4 0.4,-0.4 z m 0.1,1.4 c 1.3,0 2.4,0.7 2.9,1.8 -0.3,0.1 -0.5,0.4 -0.6,0.7 -0.3,-0.5 -0.7,-0.8 -1.4,-0.9 0,-0.5 -0.3,-1 -0.7,-1.3 -0.1,-0.1 -0.3,-0.1 -0.3,-0.1 -0.6,0.2 -0.9,0.8 -1,1.4 -0.8,0.1 -1.2,0.4 -1.4,0.9 -0.1,-0.3 -0.2,-0.5 -0.5,-0.6 0.5,-1.1 1.7,-1.9 3,-1.9 z m 2.5,3.2 c -0.2,0.4 -0.4,0.9 -1,0.9 -0.7,0 -0.7,-0.4 -0.7,-0.5 0,-0.1 0.1,-0.4 0.3,-0.5 0.4,-0.2 1,0 1.4,0.1 z m -3.4,0.4 c 0,0.1 0,0.5 -0.7,0.5 -0.6,0 -0.8,-0.4 -1,-0.9 v -0.1 l 0.3,-0.1 c 0.5,0 1.4,-0.1 1.4,0.6 z m -2.4,-1.3 c 0.2,0 0.4,0.2 0.4,0.4 0,0.2 -0.2,0.4 -0.4,0.4 -0.2,0 -0.4,-0.2 -0.4,-0.4 0,-0.2 0.2,-0.4 0.4,-0.4 z m -1.1,1.1 h 0.6 c 0,0 0.1,0.1 0.1,0.1 -0.3,1 -1.2,1.2 -1.2,0.6 0,-0.4 0.2,-0.7 0.5,-0.7 z m -3.1,0.3 c 0.1,-0.1 0.2,-0.2 0.5,-0.2 0.3,0 0.6,0.1 0.8,0.4 0,0 0.4,0.5 0.4,0.5 0.1,-0.3 0.4,-1.9 1,-1.4 h 0.1 c -0.5,0.2 -0.6,0.7 -0.6,1.1 0,1.3 1.8,1.2 2.2,-0.3 h 0.2 c 0.3,0.5 0.7,0.9 1.4,0.9 1.1,0 1.3,-0.7 1.3,-1 0,-0.8 -0.8,-1.1 -1.5,-1 0.2,-0.3 0.6,-0.4 0.9,-0.4 0.1,0 0.4,0 0.4,0 0,-0.5 0,-1.1 0.5,-1.4 0.5,0.3 0.5,0.9 0.5,1.4 0.5,0 1,0 1.4,0.4 -0.7,-0.1 -1.5,0.2 -1.5,1 0,0.3 0.2,1 1.3,1 0.6,0 1.1,-0.4 1.4,-0.9 v 0 l 0.2,0.1 c 0.1,0.5 0.4,1 1,1.1 1.6,0.5 1.5,-1.5 0.6,-1.9 h 0.1 c 0.4,-0.3 0.6,0.4 0.7,0.6 0.1,0.1 0.2,0.8 0.2,0.8 0.3,-0.5 0.5,-0.9 1.2,-0.9 0.3,0 0.4,0.1 0.5,0.2 -0.3,0.1 -0.6,0.3 -0.8,0.5 -0.8,0.7 -0.8,0.9 -0.7,1.8 -1.8,-0.6 -4.1,-0.8 -5.9,-0.8 -2.9,0 -5.1,0.6 -5.9,0.8 0,-0.3 0,-0.5 0,-0.8 -0.4,-0.8 -1.4,-1.4 -1.9,-1.6 z m 1.1,3.7 c 0.2,-0.2 0.4,-0.4 0.4,-0.4 l 0.1,-0.5 c 1.7,-0.6 4.2,-0.9 5.9,-0.9 1.8,0 3.3,0.2 4.4,0.4 0.8,0.2 1.4,0.3 1.6,0.4 0,0.3 0,0.5 0,0.5 0.7,0.6 1.2,1.5 1.5,2.4 -0.7,0 -1.4,0.9 -0.7,1.5 0.1,0.1 0.2,0.3 0.2,0.5 v 0 c -0.1,0.6 -0.9,0.5 -0.9,-0.1 v -0.3 l -0.5,-0.1 c 0,0 0,0 0,0.1 -0.1,0.2 -0.2,0.3 -0.4,0.3 -0.4,-0.1 -0.5,-0.4 -0.5,-0.7 0.1,-0.4 0.7,-0.5 0.9,-0.3 0.2,0.1 0.4,0.4 0.4,0.4 0.1,-0.9 0.1,-1.4 -0.7,-1.9 l -0.1,-0.1 c 0,-0.4 -0.1,-1.1 -0.5,-1.5 l -0.1,-0.1 h -0.1 c -0.5,0.2 -0.8,0.8 -0.9,1.2 h -0.1 c -0.9,0.1 -1.1,0.7 -1.3,1.5 0,0 0.3,-0.2 0.5,-0.3 0.3,-0.1 0.8,0.2 0.8,0.6 -0.1,0.3 -0.2,0.5 -0.7,0.5 -0.2,0 -0.3,-0.2 -0.3,-0.4 0,0 0,-0.1 0,-0.1 l -0.3,-0.1 h -0.3 c 0,0 0,0 0,0.1 0,0.2 -0.2,0.3 -0.4,0.3 -0.4,0 -0.6,-0.3 -0.6,-0.6 0,-0.4 0.6,-0.6 0.9,-0.5 0.2,0.1 0.4,0.4 0.4,0.4 -0.1,-0.9 -0.2,-1.4 -1,-1.7 h -0.1 c 0,-0.4 -0.3,-1.1 -0.7,-1.4 l -0.1,-0.1 -0.1,0.1 c -0.4,0.2 -0.7,0.9 -0.7,1.4 H 136 c -0.9,0.3 -1,0.8 -1,1.7 0,0 0.2,-0.2 0.4,-0.3 0.3,-0.2 0.8,0 0.8,0.4 0,0.3 -0.1,0.6 -0.6,0.6 -0.2,0 -0.3,-0.1 -0.4,-0.3 0,0 0,-0.1 0,-0.1 h -0.3 -0.3 c 0,0 0,0 0,0.1 0,0.2 -0.1,0.4 -0.3,0.4 -0.4,0.1 -0.6,-0.2 -0.7,-0.5 -0.1,-0.4 0.4,-0.7 0.8,-0.6 0.2,0.1 0.5,0.3 0.5,0.3 -0.2,-0.8 -0.4,-1.4 -1.3,-1.5 h -0.1 c -0.1,-0.4 -0.4,-1.1 -0.9,-1.2 h -0.1 l -0.1,0.1 c -0.4,0.3 -0.5,1 -0.5,1.5 l -0.1,0.1 c -0.8,0.4 -0.8,1 -0.7,1.9 0,0 0.2,-0.3 0.4,-0.4 0.3,-0.2 0.8,-0.1 0.9,0.3 0.1,0.3 0,0.6 -0.5,0.7 -0.2,0 -0.4,-0.1 -0.4,-0.3 0,0 0,-0.1 0,-0.1 L 131,129 v 0.3 c 0,0.6 -0.8,0.6 -0.9,0.1 v 0 c 0,-0.2 0.1,-0.4 0.2,-0.5 0.7,-0.6 0,-1.5 -0.7,-1.5 -0.3,-0.5 0.1,-1.3 0.6,-1.8 z m -2.9,3.7 c -0.2,-0.3 -0.6,-0.5 -0.9,-0.7 l -0.1,-0.1 c 0.6,-0.3 1.2,-0.5 1.7,0.2 h 0.4 c 0,0 0.2,-0.3 0.2,-0.4 0.6,-0.6 1.1,0.1 0.8,0.4 -0.2,0.2 -0.3,0.4 -0.3,0.5 -0.1,0.2 -0.1,0.3 -0.1,0.3 v 0 c 0.1,1.1 1.6,1.3 1.9,0.3 0.2,0.1 0.4,0.2 0.6,0.1 0.8,-0.1 1,-0.8 0.9,-1.3 -0.1,-0.7 -0.7,-0.9 -1.3,-0.7 0.2,-0.4 0.5,-0.5 0.9,-0.6 l -0.1,-0.2 c -0.1,-0.3 0,-0.7 0.1,-1 0.3,0.2 0.4,0.6 0.5,0.9 v 0.2 c 0.4,0 0.7,0 1,0.2 -0.6,0.1 -1,0.4 -0.9,1.1 0.1,0.5 0.5,1 1.3,0.9 0.3,0 0.5,-0.1 0.6,-0.3 0.2,0.2 0.4,0.3 0.6,0.3 0.8,0 1.1,-0.6 1.1,-1.1 0,-0.7 -0.5,-1 -1.1,-1 0.3,-0.3 0.6,-0.4 1,-0.4 v -0.2 c 0,-0.3 0.1,-0.7 0.3,-1 0.2,0.3 0.3,0.7 0.3,1 v 0.2 c 0.4,0.1 0.7,0.1 1,0.4 -0.6,0 -1.1,0.3 -1.1,1 0,0.5 0.3,1.1 1.1,1.1 0.3,0 0.5,-0.1 0.6,-0.3 0.1,0.2 0.4,0.3 0.6,0.4 0.8,0.1 1.2,-0.4 1.3,-0.9 0.1,-0.7 -0.3,-1.1 -0.9,-1.1 0.3,-0.3 0.6,-0.3 1,-0.2 v -0.2 c 0.1,-0.3 0.2,-0.7 0.5,-0.9 0.2,0.3 0.2,0.7 0.1,1 l -0.1,0.2 c 0.4,0.1 0.7,0.2 0.9,0.6 -0.6,-0.1 -1.1,0.1 -1.3,0.8 -0.1,0.5 0.1,1.1 0.9,1.3 0.2,0 0.5,0 0.6,-0.1 0.3,1 1.9,0.8 1.9,-0.3 v 0 c 0,0 0,-0.1 -0.1,-0.3 -0.1,-0.2 -0.2,-0.4 -0.3,-0.5 -0.3,-0.3 0.2,-1 0.8,-0.4 0.1,0.1 0.2,0.4 0.2,0.4 h 0.4 c 0.5,-0.7 1.1,-0.5 1.7,-0.2 l -0.1,0.1 c -0.3,0.2 -0.7,0.4 -0.9,0.7 -0.5,0.5 -0.6,1.1 -0.6,1.2 0,0.2 0,0.5 0,0.7 -1.4,-0.4 -4.7,-1.2 -8.6,-1.2 -3.9,0 -7.2,0.8 -8.6,1.2 0,-0.3 0,-0.5 0,-0.8 0.3,-0.2 0.1,-0.7 -0.4,-1.3 z m 15.6,6.7 c 0,0.4 -0.1,0.6 -0.5,0.6 -0.6,-0.1 -1.2,-0.8 -1.3,-1.4 0.4,-0.2 0.7,-0.5 0.7,-1 0,-0.6 -0.5,-1 -1,-1 -0.6,0 -1,0.5 -1,1 0,0.3 0.1,0.6 0.3,0.8 0,0 0,0.1 -0.1,0.2 -0.2,0.5 -0.8,1 -1.3,1 -0.5,0 -1,-0.3 -1,-0.7 0,-0.8 1.2,-0.9 1.7,-0.7 l 0.4,0.1 c -0.2,-1.3 -0.7,-1.7 -2,-1.9 0,-0.3 -0.1,-0.6 -0.2,-0.9 -0.2,-0.4 -0.4,-0.7 -0.8,-0.9 0,0 -0.2,-0.1 -0.2,-0.1 -0.1,0 -0.2,0.1 -0.2,0.1 -0.3,0.2 -0.6,0.5 -0.8,0.9 -0.1,0.3 -0.2,0.6 -0.2,0.9 -1.2,0.1 -1.7,0.5 -2,1.9 l 0.4,-0.1 c 0.6,-0.2 1.7,-0.1 1.7,0.7 0,0.4 -0.6,0.8 -1,0.7 -0.5,0 -1.1,-0.5 -1.3,-1 -0.1,-0.1 -0.1,-0.2 -0.1,-0.2 0.2,-0.2 0.3,-0.5 0.3,-0.8 0,-0.6 -0.5,-1 -1,-1 -0.6,0 -1,0.5 -1,1 0,0.4 0.3,0.8 0.7,1 -0.1,0.6 -0.7,1.3 -1.3,1.4 -0.4,0 -0.5,-0.2 -0.5,-0.6 -0.1,-0.8 0.8,-0.8 1.3,-0.8 l -0.3,-0.4 c -1,-1.4 -1.9,-0.9 -2.4,0.6 -0.2,-0.1 -0.4,-0.3 -0.7,-0.4 -0.3,-0.6 -0.5,-1.7 -0.3,-2.3 0.1,-0.2 0.1,-0.5 0.1,-0.8 2.6,-0.8 6,-1.2 8.6,-1.2 2.6,0 4.9,0.4 6.5,0.7 0.9,0.2 1.6,0.4 2.1,0.5 0,0.3 0,0.5 0.1,0.8 0.1,0.6 -0.1,1.7 -0.3,2.2 -0.3,0.1 -0.5,0.2 -0.7,0.4 -0.5,-1.5 -1.4,-1.9 -2.4,-0.6 l -0.3,0.4 c 0.5,0.1 1.4,0.1 1.3,0.9 z m -2.2,-1.2 c -0.3,0 -0.5,-0.2 -0.5,-0.5 0,-0.3 0.2,-0.5 0.5,-0.5 0.3,0 0.5,0.2 0.5,0.5 0.1,0.3 -0.2,0.5 -0.5,0.5 z m -7.8,-0.5 c 0,0.3 -0.2,0.5 -0.5,0.5 -0.3,0 -0.5,-0.2 -0.5,-0.5 0,-0.3 0.2,-0.5 0.5,-0.5 0.3,0 0.5,0.2 0.5,0.5 z m -6.1,1.4 c 0.1,-0.1 0.3,-0.3 0.5,-0.4 0.7,-0.2 1.4,0.5 1.8,1 0.1,-0.5 0.2,-1 0.5,-1.5 0.3,-0.5 0.5,-0.6 1,-0.1 -0.4,0.2 -1,0.5 -0.9,1.3 0.1,0.7 0.3,1.1 1.1,1.1 0.9,-0.1 1.6,-0.9 1.7,-1.8 0,0 0.1,0 0.1,0 0.2,0.8 1.1,1.5 1.8,1.5 1.9,0.1 2.4,-2.7 -0.3,-2.6 H 134 c 0.2,-0.4 0.7,-0.6 1.1,-0.6 0.2,0 0.6,-0.1 0.6,-0.1 0,-0.4 0,-0.8 0.2,-1.2 0.2,-0.3 0.5,-0.6 0.6,-0.7 0.1,0.1 0.4,0.3 0.6,0.7 0.2,0.3 0.1,0.8 0.2,1.2 0,0 0.4,0 0.6,0.1 0.5,0.1 0.9,0.2 1.1,0.6 h -0.1 c -2.6,-0.1 -2.2,2.6 -0.3,2.6 0.8,0 1.6,-0.7 1.8,-1.5 0,0 0.1,0 0.1,0 0.1,0.9 0.8,1.7 1.7,1.8 0.7,0.1 1,-0.4 1.1,-1.1 0.1,-0.8 -0.4,-1.1 -0.8,-1.3 0.4,-0.4 0.6,-0.3 0.9,0.2 0.3,0.5 0.4,1 0.5,1.5 0.4,-0.5 1,-1.2 1.8,-1 0.3,0.1 0.4,0.2 0.5,0.4 -1.2,0.7 -1.5,1.6 -1.9,2.8 -0.4,-0.1 -1.2,-0.3 -2.3,-0.5 -1.4,-0.3 -3.4,-0.5 -5.3,-0.5 h -0.3 -0.2 c -2,0 -3.9,0.3 -5.3,0.5 -1.1,0.2 -1.9,0.4 -2.3,0.5 -0.3,-1.3 -0.6,-2.2 -1.8,-2.9 z m 0.9,6.4 c 0,-0.1 0.7,-0.8 0.7,-0.8 0,0 -0.4,-0.4 -0.4,-0.5 -0.1,-0.1 -0.1,-0.3 -0.1,-0.4 0,-0.1 0,-0.5 0.9,-0.5 1,0 1,0.3 1,0.5 0,0.4 -0.5,0.9 -0.5,0.9 l 0.6,0.8 v 0.1 h -2.2 c 0,0 -0.1,-0.1 0,-0.1 z m -0.4,31.1 h -2.2 c 0,0 0,-0.1 0,-0.1 0,-0.1 0.7,-0.8 0.7,-0.8 0,0 -0.4,-0.4 -0.4,-0.5 -0.1,-0.1 -0.1,-0.3 -0.1,-0.4 0,-0.1 0,-0.5 0.9,-0.5 1,0 1,0.3 1,0.5 0,0.4 -0.5,0.9 -0.5,0.9 l 0.6,0.8 z m 0.8,-2.5 c -1.3,-1.3 -2.3,-2.4 -2.7,-3.6 l 5.7,5.7 c -0.9,-0.5 -2,-1.2 -3,-2.1 z m 4.2,2.2 -7.1,-7.1 v -1 l 7.1,7.1 z m 0,-2.2 -7.1,-7.1 v -1 l 7.1,7.1 z m 0,-2.1 -7.1,-7.1 v -1 l 7.1,7.1 z m 0,-4.3 -3.9,-3.9 h -0.1 c 0,0 0,-0.3 0,-0.5 0.1,-0.2 0.2,-0.5 0.3,-0.6 0.1,-0.1 0.3,-0.3 0.7,-0.3 0.4,0 0.4,0.5 0.4,0.7 0,0.2 -0.1,0.7 -0.1,0.7 h -0.2 l 2.9,2.9 z m 0,-3.9 h -0.7 l 0.7,0.7 v 1 c 0,0 0,0 -1.7,-1.8 h 0.4 c 0,0 0,-0.1 0,-0.5 0,-0.4 0.1,-0.7 0.3,-1 0.2,-0.3 0.4,-0.2 0.4,-0.2 0,-0.6 -0.1,-0.7 -0.3,-1 -0.2,-0.2 -0.5,-0.7 -2,-0.6 -1.5,0.1 -1.4,0 -1.7,-0.2 -0.4,-0.2 -0.5,-0.5 -0.5,-0.7 0,-0.2 -0.1,-0.2 -0.1,-0.2 0,0 -0.2,0.1 -0.3,0.3 -0.1,0.2 -0.1,0.3 -0.1,0.3 0,0 -0.1,0 -0.2,-0.3 -0.2,-0.2 -0.3,-0.2 -0.3,-0.2 0,0 -0.1,0.1 -0.2,0.3 -0.1,0.2 -0.1,0.5 0,0.8 0.1,0.4 0,0.6 -0.1,0.7 -0.1,0.1 -0.1,0.1 0,0.2 0.1,0.1 0.2,0.1 0.6,0.1 0.4,0.1 0.5,0.5 0.5,0.9 0,0.4 -0.2,1.2 -0.2,1.2 h 0.5 l 5,5 v 1 l -6,-6 h -1.1 c 0,-6.9 0,-17.5 0,-17.5 h 7.1 v 17.2 z m 3.2,17.7 h -2.2 c 0,0 0,-0.1 0,-0.1 0,-0.1 0.7,-0.8 0.7,-0.8 0,0 -0.4,-0.4 -0.4,-0.5 -0.1,-0.1 -0.1,-0.3 -0.1,-0.4 0,-0.1 0,-0.5 0.9,-0.5 1,0 1,0.3 1,0.5 0,0.4 -0.5,0.9 -0.5,0.9 l 0.6,0.8 z m 0,-21.4 h -2.2 c 0,0 0,-0.1 0,-0.1 0,-0.1 0.7,-0.8 0.7,-0.8 0,0 -0.4,-0.4 -0.4,-0.5 -0.1,-0.1 -0.1,-0.3 -0.1,-0.4 0,-0.1 0,-0.5 0.9,-0.5 1,0 1,0.3 1,0.5 0,0.4 -0.5,0.9 -0.5,0.9 l 0.6,0.8 z m 0,-14.5 h -2.2 c 0,0 0,-0.1 0,-0.1 0,-0.1 0.7,-0.8 0.7,-0.8 0,0 -0.4,-0.4 -0.4,-0.5 -0.1,-0.1 -0.1,-0.3 -0.1,-0.4 0,-0.1 0,-0.5 0.9,-0.5 1,0 1,0.3 1,0.5 0,0.4 -0.5,0.9 -0.5,0.9 l 0.6,0.8 z m 0.6,-3.4 h -6.3 c 0.5,-0.1 1,-0.2 1.4,-0.3 1.8,-0.3 4,-0.5 5.4,-0.5 1.4,0 3.7,0.2 5.4,0.5 0.5,0.1 1,0.2 1.4,0.3 h -6.8 z m 13.8,29.4 c -0.5,1.7 -1.5,3.3 -2.7,4.7 h -10.7 v -6.8 h 13.7 c 0,0.8 -0.1,1.5 -0.3,2.1 z m 0.4,-8.8 h -13.7 v -7 h 13.7 z m 0,-19.7 v 7 h -13.7 v -7 z"
   id="path154"
   inkscape:connector-curvature="0"
   style="clip-rule:evenodd;fill-rule:evenodd;fill:#000000;fill-opacity:1" />
	</g>
</g>
</svg>